<?xml version="1.0" encoding="UTF-8" standalone="no"?>
<svg
   xmlns:osb="http://www.openswatchbook.org/uri/2009/osb"
   xmlns:dc="http://purl.org/dc/elements/1.1/"
   xmlns:cc="http://creativecommons.org/ns#"
   xmlns:rdf="http://www.w3.org/1999/02/22-rdf-syntax-ns#"
   xmlns:svg="http://www.w3.org/2000/svg"
   xmlns="http://www.w3.org/2000/svg"
   xmlns:sodipodi="http://sodipodi.sourceforge.net/DTD/sodipodi-0.dtd"
   xmlns:inkscape="http://www.inkscape.org/namespaces/inkscape"
   version="1.1"
   id="svg2"
   width="90"
   height="35"
   viewBox="0 0 90.000001 35"
   sodipodi:docname="Logoideal-professor.svg"
   inkscape:version="1.0 (6e3e5246a0, 2020-05-07)">
  <metadata
     id="metadata8">
    <rdf:RDF>
      <cc:Work
         rdf:about="">
        <dc:format>image/svg+xml</dc:format>
        <dc:type
           rdf:resource="http://purl.org/dc/dcmitype/StillImage" />
        <dc:title></dc:title>
      </cc:Work>
    </rdf:RDF>
  </metadata>
  <defs
     id="defs6">
    <linearGradient
       osb:paint="solid"
       id="linearGradient2959">
      <stop
         id="stop2957"
         offset="0"
         style="stop-color:#fadb41;stop-opacity:1;" />
    </linearGradient>
  </defs>
  <sodipodi:namedview
     inkscape:snap-nodes="false"
     inkscape:document-rotation="0"
     pagecolor="#ffffff"
     bordercolor="#666666"
     borderopacity="1"
     objecttolerance="10"
     gridtolerance="10"
     guidetolerance="10"
     inkscape:pageopacity="0"
     inkscape:pageshadow="2"
     inkscape:window-width="1312"
     inkscape:window-height="704"
     id="namedview4"
     showgrid="false"
     inkscape:snap-intersection-paths="true"
     inkscape:object-paths="true"
     inkscape:zoom="4.3444445"
     inkscape:cx="38.81757"
     inkscape:cy="6.184751"
     inkscape:window-x="54"
     inkscape:window-y="27"
     inkscape:window-maximized="1"
     inkscape:current-layer="g10"
     showguides="false" />
  <g
     inkscape:groupmode="layer"
     inkscape:label="Image"
     id="g10">
    <path
       sodipodi:nodetypes="scccccccccccccccscsssssccccsccsscccc"
       d="M 19.672735,0.3279892 C 14.572095,0.4385006 8.820612,1.5690738 3.5865233,9.206874 c -5.748044,8.307371 -2.120914,20.684712 2.928121,24.78638 L 7.9369323,32.25789 C 4.3125923,28.580607 -0.1357826,19.055671 5.4790213,10.357837 9.516773,3.5203317 19.854073,-0.6186214 27.922777,3.9255011 L 18.030889,17.109116 C 11.92624,12.728722 8.509568,13.514643 5.7160643,17.257695 c -1.446216,2.585762 -0.468845,5.492932 1.465035,7.206909 4.1771467,2.843846 7.7839217,0.610331 9.5984847,-2.660499 l -1.591327,-1.224259 c -2.925633,4.394236 -5.008364,3.426969 -7.051198,2.216748 -2.5748257,-3.05725 -1.1222807,-6.474974 2.687188,-6.91372 1.740398,-0.120298 3.990328,1.091485 8.568697,4.823753 l 2.545344,1.810647 c 4.23475,2.57652 5.021186,3.341487 7.143488,3.516288 0,0 1.243963,0.313133 2.983501,-0.494261 0.818032,-0.379685 1.967747,-1.320242 2.606556,-3.160701 1.241545,-3.251811 -0.239811,-5.640843 -0.675198,-6.200559 -2.335803,-3.002813 -5.580247,-2.252973 -6.155467,-2.052327 -0.482984,0.168472 -0.287802,0.08205 -0.759721,0.299136 -0.01291,0.0061 -0.547624,0.295208 -0.920988,0.633923 -0.454798,0.41259 -0.307648,0.233424 -0.940418,0.883528 -1.314735,1.350759 -1.707912,1.915636 -1.707912,1.915636 l 1.336798,1.099458 c 1.908906,-1.941688 3.700206,-4.357172 6.509091,-2.704075 2.55471,1.865546 2.450168,4.603236 1.300854,6.132214 -1.100629,1.906287 -2.294526,2.219737 -4.105592,1.737346 -1.613955,-0.429888 -4.687796,-2.999775 -8.863057,-5.880627 L 30.582757,3.1410222 C 30.133816,2.8625828 28.226085,2.0635506 27.539998,1.7780883 25.499529,0.9291011 22.73312,0.2616828 19.672735,0.3279892 Z M 36.907269,23.155154 c -0.0017,0.0088 -0.0042,0.01709 -0.006,0.02575 l 0.01,-0.0061 z"
       style="opacity:1;fill:#fadb41;fill-opacity:1;stroke:none;stroke-width:0;stroke-linecap:round;stroke-linejoin:round;stroke-miterlimit:4;stroke-dasharray:none;stroke-opacity:1"
       id="path851" />
    <g
       transform="matrix(0.99482297,0,0,1.0142766,-13.049564,-1.6015129)"
       style="font-size:18.2503px;line-height:1.25;font-family:Philosopher;-inkscape-font-specification:Philosopher;fill:#fadb41;fill-opacity:1;stroke:none;stroke-width:0.444984;stroke-miterlimit:4;stroke-dasharray:none"
       id="text2978"
       aria-label="eandro">
      <g
         style="opacity:1;stroke:none;stroke-width:0.444984;stroke-miterlimit:4;stroke-dasharray:none"
         id="g3090">
        <path
           id="path3092"
           d="m 54.266158,26.144057 c -0.827347,0 -1.526942,-0.19467 -2.098785,-0.58401 -0.571843,-0.401507 -1.003766,-0.936849 -1.295771,-1.606026 -0.292005,-0.681345 -0.438007,-1.441774 -0.438007,-2.281288 0,-0.827347 0.146002,-1.581692 0.438007,-2.263037 0.292005,-0.681345 0.711762,-1.216687 1.259271,-1.606026 0.559675,-0.401507 1.210603,-0.60226 1.952782,-0.60226 1.228853,0 2.141368,0.346756 2.737545,1.040267 0.608343,0.681345 0.912515,1.672944 0.912515,2.974799 l -0.0365,0.730012 h -5.529841 c 0,1.022017 0.219004,1.855447 0.657011,2.500291 0.438007,0.644844 1.040267,0.967266 1.80678,0.967266 0.571843,0 1.052434,-0.121669 1.441773,-0.365006 0.401507,-0.243337 0.772596,-0.608343 1.113269,-1.095018 l 0.365006,0.273754 c -0.401507,0.669178 -0.869931,1.155853 -1.405273,1.460024 -0.535343,0.304172 -1.161937,0.456258 -1.879782,0.456258 z m 1.733778,-4.927581 c 0,-1.070685 -0.158169,-1.885865 -0.474508,-2.44554 -0.316338,-0.559676 -0.796929,-0.839514 -1.441773,-0.839514 -0.365006,0 -0.693511,0.146002 -0.985516,0.438007 -0.292005,0.279838 -0.523176,0.669178 -0.693512,1.168019 -0.158169,0.498841 -0.237254,1.058517 -0.237254,1.679028 z"
           style="color:#000000;font-style:normal;font-variant:normal;font-weight:normal;font-stretch:normal;font-size:medium;line-height:1.25;font-family:Philosopher;-inkscape-font-specification:Philosopher;font-variant-ligatures:normal;font-variant-position:normal;font-variant-caps:normal;font-variant-numeric:normal;font-variant-alternates:normal;font-variant-east-asian:normal;font-feature-settings:normal;font-variation-settings:normal;text-indent:0;text-align:start;text-decoration:none;text-decoration-line:none;text-decoration-style:solid;text-decoration-color:#000000;letter-spacing:normal;word-spacing:normal;text-transform:none;writing-mode:lr-tb;direction:ltr;text-orientation:mixed;dominant-baseline:auto;baseline-shift:baseline;text-anchor:start;white-space:normal;shape-padding:0;shape-margin:0;inline-size:0;clip-rule:nonzero;display:inline;overflow:visible;visibility:visible;isolation:auto;mix-blend-mode:normal;color-interpolation:sRGB;color-interpolation-filters:linearRGB;solid-color:#000000;solid-opacity:1;vector-effect:none;fill:#fadb41;fill-opacity:1;fill-rule:nonzero;stroke:none;stroke-width:0.444984;stroke-linecap:butt;stroke-linejoin:miter;stroke-miterlimit:4;stroke-dasharray:none;stroke-dashoffset:0;stroke-opacity:1;color-rendering:auto;image-rendering:auto;shape-rendering:auto;text-rendering:auto;enable-background:accumulate;stop-color:#000000;stop-opacity:1" />
        <path
           id="path3094"
           d="m 54.083984,16.972656 c -0.783317,0 -1.487454,0.217137 -2.085937,0.646485 -0.582513,0.414592 -1.030012,0.987345 -1.335938,1.701171 -0.305174,0.712075 -0.457031,1.497378 -0.457031,2.351563 0,0.865964 0.151663,1.658568 0.457031,2.371094 v 0.002 c 0.307148,0.70388 0.769323,1.275909 1.375,1.701172 v 0.002 h 0.002 c 0.61415,0.418144 1.363431,0.625 2.226563,0.625 0.750067,0 1.418765,-0.16052 1.992187,-0.486328 0.57652,-0.327568 1.071607,-0.846557 1.488282,-1.541016 l 0.107422,-0.177734 -0.71875,-0.53711 L 57,23.822266 c -0.326771,0.466815 -0.676608,0.808029 -1.044922,1.03125 l -0.002,0.002 h -0.002 c -0.346772,0.216733 -0.780829,0.330078 -1.320313,0.330078 -0.702539,0 -1.213934,-0.27351 -1.617187,-0.867188 -0.367711,-0.541351 -0.524215,-1.284883 -0.560547,-2.144531 h 5.460937 l 0.04688,-0.951172 v -0.0059 c -10e-7,-1.335474 -0.312297,-2.387998 -0.966797,-3.123047 -0.646687,-0.752268 -1.638388,-1.121094 -2.910157,-1.121094 z m 0,0.457032 c 1.185938,0 2.018787,0.326182 2.564454,0.960937 l 0.002,0.002 v 0.002 c 0.559615,0.62677 0.854784,1.554296 0.855468,2.81836 l -0.02539,0.505859 H 51.9395 v 0.228516 c 0,1.054606 0.22583,1.93577 0.695313,2.626953 0.472761,0.69601 1.165608,1.068359 1.996093,1.068359 0.604202,0 1.130594,-0.130449 1.5625,-0.40039 0.371136,-0.225362 0.697488,-0.586674 1.009766,-0.990235 l 0.0098,0.0078 c -0.355356,0.538255 -0.738762,0.979943 -1.179688,1.230468 -0.497263,0.282536 -1.081954,0.425782 -1.767578,0.425782 -0.789903,0 -1.43787,-0.183928 -1.966797,-0.542969 -4.21e-4,-2.96e-4 4.21e-4,-0.0017 0,-0.002 -0.537375,-0.377644 -0.942105,-0.873835 -1.21875,-1.507813 h 0.002 c -0.278641,-0.650163 -0.419922,-1.378342 -0.419922,-2.191406 0,-0.800508 0.141087,-1.52126 0.419922,-2.171875 0.277867,-0.648356 0.669742,-1.145749 1.181641,-1.509766 v -0.002 c 0.520867,-0.373666 1.119271,-0.558593 1.820312,-0.558593 z m 0,0.273437 c -0.42584,0 -0.820873,0.180248 -1.146484,0.505859 -0.323473,0.311098 -0.569577,0.731243 -0.748047,1.253907 l -0.002,0.0039 v 0.002 c -0.166406,0.524819 -0.248047,1.108153 -0.248047,1.748047 v 0.228515 h 4.289063 v -0.228515 c 0,-1.093152 -0.156905,-1.944668 -0.503907,-2.558594 -0.349011,-0.617483 -0.929781,-0.955078 -1.640625,-0.955078 z m 0,0.457031 c 0.578845,0 0.958523,0.220787 1.242188,0.722656 0.25772,0.455966 0.374501,1.207298 0.402344,2.105469 h -3.300782 c 0.01856,-0.498643 0.06731,-0.974002 0.195313,-1.378906 3.55e-4,-0.0011 -3.56e-4,-0.0028 0,-0.0039 0.161398,-0.470039 0.37495,-0.825148 0.632812,-1.072266 h 0.002 l 0.002,-0.002 c 0.258398,-0.258398 0.520047,-0.371094 0.824218,-0.371094 z"
           style="color:#000000;font-style:normal;font-variant:normal;font-weight:normal;font-stretch:normal;font-size:medium;line-height:1.25;font-family:Philosopher;-inkscape-font-specification:Philosopher;font-variant-ligatures:normal;font-variant-position:normal;font-variant-caps:normal;font-variant-numeric:normal;font-variant-alternates:normal;font-variant-east-asian:normal;font-feature-settings:normal;font-variation-settings:normal;text-indent:0;text-align:start;text-decoration:none;text-decoration-line:none;text-decoration-style:solid;text-decoration-color:#000000;letter-spacing:normal;word-spacing:normal;text-transform:none;writing-mode:lr-tb;direction:ltr;text-orientation:mixed;dominant-baseline:auto;baseline-shift:baseline;text-anchor:start;white-space:normal;shape-padding:0;shape-margin:0;inline-size:0;clip-rule:nonzero;display:inline;overflow:visible;visibility:visible;isolation:auto;mix-blend-mode:normal;color-interpolation:sRGB;color-interpolation-filters:linearRGB;solid-color:#000000;solid-opacity:1;vector-effect:none;fill-opacity:1;fill-rule:nonzero;stroke:none;stroke-width:0.444984;stroke-linecap:butt;stroke-linejoin:miter;stroke-miterlimit:4;stroke-dasharray:none;stroke-dashoffset:0;stroke-opacity:1;color-rendering:auto;image-rendering:auto;shape-rendering:auto;text-rendering:auto;enable-background:accumulate;stop-color:#000000;stop-opacity:1" />
      </g>
      <g
         style="opacity:1;stroke:none;stroke-width:0.444984;stroke-miterlimit:4;stroke-dasharray:none"
         id="g3096">
        <path
           id="path3098"
           d="m 61.876513,26.144057 c -0.389339,0 -0.784762,-0.07908 -1.186269,-0.237254 -0.401507,-0.170337 -0.748262,-0.444091 -1.040267,-0.821264 -0.279838,-0.377173 -0.419757,-0.876014 -0.419757,-1.496524 0,-0.924682 0.42584,-1.581693 1.277521,-1.971033 0.863847,-0.389339 1.989282,-0.584009 3.376305,-0.584009 h 0.547509 c 0,-1.192353 -0.164253,-2.007533 -0.492758,-2.44554 -0.328505,-0.438007 -0.803013,-0.657011 -1.423523,-0.657011 -0.547509,0 -0.985517,0.115585 -1.314022,0.346756 -0.328505,0.23117 -0.559676,0.632676 -0.693511,1.204519 h -0.821263 c 0,-0.413673 0.02433,-0.736095 0.073,-0.967266 0.04867,-0.243337 0.176419,-0.468424 0.383256,-0.675261 0.219003,-0.219003 0.577926,-0.377172 1.076768,-0.474507 0.511008,-0.109502 1.0646,-0.164253 1.660777,-0.164253 0.985516,0 1.764195,0.267671 2.336038,0.803013 0.571843,0.523175 0.857764,1.533025 0.857764,3.02955 v 4.927581 h -0.912515 l -0.63876,-0.821264 h -0.09125 c -0.219003,0.279838 -0.541425,0.517092 -0.967265,0.711762 -0.425841,0.19467 -0.9551,0.292005 -1.587778,0.292005 z m 0.821264,-0.821264 c 0.401507,0 0.736095,-0.09734 1.003766,-0.292005 0.267671,-0.194669 0.511009,-0.46234 0.730012,-0.803013 v -2.46379 h -0.547509 c -0.900348,0 -1.61211,0.170336 -2.135285,0.511008 -0.523175,0.328505 -0.784763,0.766513 -0.784763,1.314022 0,0.559675 0.164253,0.991599 0.492759,1.295771 0.340672,0.292005 0.754345,0.438007 1.24102,0.438007 z"
           style="color:#000000;font-style:normal;font-variant:normal;font-weight:normal;font-stretch:normal;font-size:medium;line-height:1.25;font-family:Philosopher;-inkscape-font-specification:Philosopher;font-variant-ligatures:normal;font-variant-position:normal;font-variant-caps:normal;font-variant-numeric:normal;font-variant-alternates:normal;font-variant-east-asian:normal;font-feature-settings:normal;font-variation-settings:normal;text-indent:0;text-align:start;text-decoration:none;text-decoration-line:none;text-decoration-style:solid;text-decoration-color:#000000;letter-spacing:normal;word-spacing:normal;text-transform:none;writing-mode:lr-tb;direction:ltr;text-orientation:mixed;dominant-baseline:auto;baseline-shift:baseline;text-anchor:start;white-space:normal;shape-padding:0;shape-margin:0;inline-size:0;clip-rule:nonzero;display:inline;overflow:visible;visibility:visible;isolation:auto;mix-blend-mode:normal;color-interpolation:sRGB;color-interpolation-filters:linearRGB;solid-color:#000000;solid-opacity:1;vector-effect:none;fill:#fadb41;fill-opacity:1;fill-rule:nonzero;stroke:none;stroke-width:0.444984;stroke-linecap:butt;stroke-linejoin:miter;stroke-miterlimit:4;stroke-dasharray:none;stroke-dashoffset:0;stroke-opacity:1;color-rendering:auto;image-rendering:auto;shape-rendering:auto;text-rendering:auto;enable-background:accumulate;stop-color:#000000;stop-opacity:1" />
        <path
           id="path3100"
           d="m 62.880859,16.972656 c -0.608762,0 -1.177309,0.05713 -1.705078,0.169922 -0.524248,0.102292 -0.927019,0.268816 -1.195312,0.53711 -0.231461,0.23146 -0.384548,0.497968 -0.44336,0.789062 -0.05432,0.258014 -0.07813,0.591052 -0.07813,1.013672 v 0.228516 h 1.230469 l 0.04102,-0.175782 c 0.125951,-0.538158 0.333534,-0.8817 0.601562,-1.070312 0.279725,-0.196844 0.668192,-0.304688 1.183594,-0.304688 0.566832,0 0.953097,0.181603 1.240234,0.564453 0.24252,0.323359 0.373527,1.0952 0.404297,2.082032 h -0.27539 c -1.408368,0 -2.565157,0.195382 -3.470704,0.603515 h -0.002 c -0.913788,0.417732 -1.410156,1.184966 -1.410156,2.179688 0,0.654804 0.149336,1.205609 0.464844,1.630859 l 0.002,0.002 v 0.002 c 0.312812,0.404049 0.69388,0.706364 1.132812,0.892579 h 0.002 l 0.0039,0.002 c 0.424903,0.167386 0.849299,0.253906 1.269531,0.253906 0.656076,0 1.216948,-0.102022 1.681641,-0.314453 0.377447,-0.172548 0.646537,-0.403035 0.882812,-0.652344 l 0.609375,0.783203 h 1.251953 v -5.15625 c 0,-1.524168 -0.279209,-2.598677 -0.929687,-3.195312 -0.619575,-0.580028 -1.465364,-0.865235 -2.492188,-0.865235 z m 0,0.457032 c 0.944209,0 1.655577,0.25153 2.179688,0.742187 h 0.002 c 0.491916,0.450051 0.783203,1.393861 0.783203,2.861328 v 4.701172 H 65.273438 L 64.634766,24.912109 H 64.320312 L 64.251953,25 c -0.190598,0.243542 -0.481115,0.460898 -0.882812,0.644531 -0.386989,0.176909 -0.882908,0.271485 -1.492188,0.271485 -0.356495,0 -0.721735,-0.07144 -1.097656,-0.21875 l -0.002,-0.002 c -0.361379,-0.153821 -0.673623,-0.399115 -0.94336,-0.746093 v -0.002 c -0.243539,-0.328966 -0.375,-0.771989 -0.375,-1.357422 0,-0.854057 0.354142,-1.402716 1.142578,-1.763672 0.822149,-0.370545 1.917526,-0.564453 3.283204,-0.564453 h 0.77539 V 21.03311 c 0,-1.213304 -0.150939,-2.064534 -0.539062,-2.582031 -0.369873,-0.493164 -0.931281,-0.748047 -1.605469,-0.748047 -0.579616,0 -1.068026,0.123174 -1.445313,0.388672 -0.337463,0.237474 -0.532613,0.670876 -0.68164,1.162109 h -0.457031 c 0.009,-0.268627 0.01845,-0.537845 0.05078,-0.691406 v -0.002 c 0.03892,-0.194582 0.140732,-0.377061 0.322266,-0.558594 0.169713,-0.169713 0.485548,-0.319732 0.958984,-0.412109 h 0.002 l 0.002,-0.002 c 0.493235,-0.105694 1.031072,-0.158203 1.613281,-0.158203 z m 1.003907,4.105468 c -0.929121,0 -1.686444,0.175503 -2.259766,0.548828 -0.569873,0.358825 -0.888672,0.886634 -0.888672,1.50586 0,0.604309 0.186718,1.111328 0.566406,1.46289 l 0.002,0.002 0.0039,0.0039 c 0.381427,0.326937 0.856371,0.492187 1.388672,0.492187 0.438376,0 0.827121,-0.109354 1.138672,-0.335937 0.29493,-0.214494 0.555933,-0.503673 0.787109,-0.863282 l 0.03711,-0.05664 v -2.759766 z m 0,0.457032 h 0.318359 v 2.152343 c -0.19731,0.296032 -0.409572,0.535975 -0.636719,0.701172 -0.22379,0.162757 -0.504503,0.248047 -0.86914,0.248047 -0.439398,0 -0.788711,-0.125728 -1.087891,-0.380859 -0.275351,-0.256573 -0.417969,-0.609866 -0.417969,-1.123047 0,-0.474846 0.202897,-0.82294 0.677735,-1.121094 l 0.002,-0.002 h 0.002 c 0.473029,-0.308019 1.140144,-0.47461 2.011719,-0.474609 z"
           style="color:#000000;font-style:normal;font-variant:normal;font-weight:normal;font-stretch:normal;font-size:medium;line-height:1.25;font-family:Philosopher;-inkscape-font-specification:Philosopher;font-variant-ligatures:normal;font-variant-position:normal;font-variant-caps:normal;font-variant-numeric:normal;font-variant-alternates:normal;font-variant-east-asian:normal;font-feature-settings:normal;font-variation-settings:normal;text-indent:0;text-align:start;text-decoration:none;text-decoration-line:none;text-decoration-style:solid;text-decoration-color:#000000;letter-spacing:normal;word-spacing:normal;text-transform:none;writing-mode:lr-tb;direction:ltr;text-orientation:mixed;dominant-baseline:auto;baseline-shift:baseline;text-anchor:start;white-space:normal;shape-padding:0;shape-margin:0;inline-size:0;clip-rule:nonzero;display:inline;overflow:visible;visibility:visible;isolation:auto;mix-blend-mode:normal;color-interpolation:sRGB;color-interpolation-filters:linearRGB;solid-color:#000000;solid-opacity:1;vector-effect:none;fill-opacity:1;fill-rule:nonzero;stroke:none;stroke-width:0.444984;stroke-linecap:butt;stroke-linejoin:miter;stroke-miterlimit:4;stroke-dasharray:none;stroke-dashoffset:0;stroke-opacity:1;color-rendering:auto;image-rendering:auto;shape-rendering:auto;text-rendering:auto;enable-background:accumulate;stop-color:#000000;stop-opacity:1" />
      </g>
      <g
         style="opacity:1;stroke:none;stroke-width:0.444984;stroke-miterlimit:4;stroke-dasharray:none"
         id="g3102">
        <path
           id="path3104"
           d="m 68.884609,19.573949 c 0,-0.620511 -0.08517,-1.076768 -0.255504,-1.368773 -0.170336,-0.304171 -0.511008,-0.456257 -1.022017,-0.456257 h -0.365006 v -0.365006 h 1.642527 c 0.450174,0 0.790846,0.06083 1.022017,0.182503 0.243337,0.121669 0.419757,0.304172 0.529259,0.547509 h 0.09125 c 0.255504,-0.255504 0.584009,-0.468424 0.985516,-0.638761 0.413673,-0.182503 0.876014,-0.273754 1.387023,-0.273754 0.912515,0 1.654694,0.243337 2.226537,0.730012 0.584009,0.486675 0.876014,1.338355 0.876014,2.555042 v 5.47509 h -1.642527 v -5.47509 c 0,-0.851681 -0.19467,-1.472191 -0.58401,-1.861531 -0.377173,-0.401507 -0.85168,-0.60226 -1.423523,-0.60226 -0.644844,0 -1.253187,0.322422 -1.82503,0.967266 v 6.971615 h -1.642527 z"
           style="color:#000000;font-style:normal;font-variant:normal;font-weight:normal;font-stretch:normal;font-size:medium;line-height:1.25;font-family:Philosopher;-inkscape-font-specification:Philosopher;font-variant-ligatures:normal;font-variant-position:normal;font-variant-caps:normal;font-variant-numeric:normal;font-variant-alternates:normal;font-variant-east-asian:normal;font-feature-settings:normal;font-variation-settings:normal;text-indent:0;text-align:start;text-decoration:none;text-decoration-line:none;text-decoration-style:solid;text-decoration-color:#000000;letter-spacing:normal;word-spacing:normal;text-transform:none;writing-mode:lr-tb;direction:ltr;text-orientation:mixed;dominant-baseline:auto;baseline-shift:baseline;text-anchor:start;white-space:normal;shape-padding:0;shape-margin:0;inline-size:0;clip-rule:nonzero;display:inline;overflow:visible;visibility:visible;isolation:auto;mix-blend-mode:normal;color-interpolation:sRGB;color-interpolation-filters:linearRGB;solid-color:#000000;solid-opacity:1;vector-effect:none;fill:#fadb41;fill-opacity:1;fill-rule:nonzero;stroke:none;stroke-width:0.444984;stroke-linecap:butt;stroke-linejoin:miter;stroke-miterlimit:4;stroke-dasharray:none;stroke-dashoffset:0;stroke-opacity:1;color-rendering:auto;image-rendering:auto;shape-rendering:auto;text-rendering:auto;enable-background:accumulate;stop-color:#000000;stop-opacity:1" />
        <path
           id="path3106"
           d="m 72.900391,16.972656 c -0.536801,0 -1.032028,0.09747 -1.476563,0.292969 -0.37075,0.157288 -0.666436,0.367642 -0.927734,0.601563 -0.130226,-0.197538 -0.268401,-0.392449 -0.486328,-0.501954 -0.284807,-0.148982 -0.655849,-0.208984 -1.125,-0.208984 h -1.871094 v 0.820312 h 0.59375 c 0.465745,0 0.699448,0.120528 0.822266,0.339844 l 0.002,0.002 v 0.002 c 0.134898,0.231255 0.224609,0.654271 0.224609,1.253907 v 6.615234 h 2.099609 V 19.109375 C 71.280167,18.540853 71.802866,18.25 72.351562,18.25 c 0.518451,0 0.920032,0.171676 1.257813,0.53125 l 0.002,0.002 0.0039,0.0039 c 0.330529,0.330529 0.515625,0.882301 0.515625,1.699219 v 5.703125 h 2.09961 v -5.703125 c 0,-1.251901 -0.302595,-2.18176 -0.957031,-2.728516 -0.617454,-0.525491 -1.419976,-0.785156 -2.373047,-0.785156 z m 0,0.457032 c 0.871958,0 1.551892,0.227923 2.078125,0.675781 l 0.002,0.002 c 0.512184,0.42682 0.792969,1.19872 0.792969,2.378906 v 5.248047 h -1.185547 v -5.248047 c 0,-0.884643 -0.202191,-1.571317 -0.648438,-2.019531 -0.416335,-0.442152 -0.963583,-0.671875 -1.587891,-0.671875 -0.720887,0 -1.394054,0.366276 -1.99414,1.042969 l -0.05859,0.06641 v 6.830078 H 69.113332 V 19.57427 c 0,-0.639758 -0.08249,-1.127917 -0.287109,-1.480469 -0.183907,-0.32705 -0.590396,-0.433422 -1.027344,-0.482422 h 1.085938 c 0.429621,0 0.738853,0.06301 0.916015,0.15625 l 0.002,0.002 h 0.002 c 0.201168,0.100584 0.334437,0.238855 0.423828,0.4375 l 0.06055,0.134766 h 0.332032 l 0.06641,-0.06641 c 0.231179,-0.23118 0.534292,-0.428729 0.914062,-0.589844 l 0.002,-0.002 h 0.002 c 0.381934,-0.168501 0.811071,-0.253907 1.294922,-0.253906 z"
           style="color:#000000;font-style:normal;font-variant:normal;font-weight:normal;font-stretch:normal;font-size:medium;line-height:1.25;font-family:Philosopher;-inkscape-font-specification:Philosopher;font-variant-ligatures:normal;font-variant-position:normal;font-variant-caps:normal;font-variant-numeric:normal;font-variant-alternates:normal;font-variant-east-asian:normal;font-feature-settings:normal;font-variation-settings:normal;text-indent:0;text-align:start;text-decoration:none;text-decoration-line:none;text-decoration-style:solid;text-decoration-color:#000000;letter-spacing:normal;word-spacing:normal;text-transform:none;writing-mode:lr-tb;direction:ltr;text-orientation:mixed;dominant-baseline:auto;baseline-shift:baseline;text-anchor:start;white-space:normal;shape-padding:0;shape-margin:0;inline-size:0;clip-rule:nonzero;display:inline;overflow:visible;visibility:visible;isolation:auto;mix-blend-mode:normal;color-interpolation:sRGB;color-interpolation-filters:linearRGB;solid-color:#000000;solid-opacity:1;vector-effect:none;fill-opacity:1;fill-rule:nonzero;stroke:none;stroke-width:0.444984;stroke-linecap:butt;stroke-linejoin:miter;stroke-miterlimit:4;stroke-dasharray:none;stroke-dashoffset:0;stroke-opacity:1;color-rendering:auto;image-rendering:auto;shape-rendering:auto;text-rendering:auto;enable-background:accumulate;stop-color:#000000;stop-opacity:1" />
      </g>
      <g
         style="opacity:1;stroke:none;stroke-width:0.444984;stroke-miterlimit:4;stroke-dasharray:none"
         id="g3108">
        <path
           id="path3110"
           d="m 81.367792,26.144057 c -1.058517,0 -1.873697,-0.419757 -2.44554,-1.259271 -0.559676,-0.839514 -0.839514,-1.910198 -0.839514,-3.212053 0,-1.301855 0.292005,-2.372539 0.876014,-3.212053 0.596177,-0.839513 1.460024,-1.25927 2.591543,-1.25927 0.462341,0 0.869931,0.04867 1.22277,0.146002 0.352839,0.09734 0.705678,0.231171 1.058517,0.401507 v -1.642527 c 0,-0.62051 -0.08517,-1.076768 -0.255504,-1.368773 -0.170336,-0.304171 -0.511008,-0.456257 -1.022017,-0.456257 h -0.365006 v -0.365006 h 1.642527 c 0.450174,0 0.784763,0.06083 1.003767,0.182503 0.23117,0.109502 0.395423,0.316339 0.492758,0.62051 0.09734,0.304172 0.146002,0.766513 0.146002,1.387023 v 9.855162 h -0.912515 l -0.63876,-0.821264 h -0.09125 c -0.267671,0.304172 -0.58401,0.547509 -0.949015,0.730012 -0.352839,0.182503 -0.857764,0.273755 -1.514775,0.273755 z m 0.547509,-0.730012 c 0.498841,0 0.876014,-0.09125 1.131518,-0.273755 0.255504,-0.182503 0.517092,-0.456257 0.784763,-0.821263 v -5.840096 c -0.365006,-0.170336 -0.681344,-0.304172 -0.949015,-0.401507 -0.267671,-0.09734 -0.529259,-0.146002 -0.784763,-0.146002 -0.77868,0 -1.356606,0.340672 -1.733779,1.022017 -0.365006,0.681344 -0.547509,1.587775 -0.547509,2.719294 0,1.119352 0.17642,2.025784 0.529259,2.719295 0.352839,0.681345 0.876015,1.022017 1.569526,1.022017 z"
           style="color:#000000;font-style:normal;font-variant:normal;font-weight:normal;font-stretch:normal;font-size:medium;line-height:1.25;font-family:Philosopher;-inkscape-font-specification:Philosopher;font-variant-ligatures:normal;font-variant-position:normal;font-variant-caps:normal;font-variant-numeric:normal;font-variant-alternates:normal;font-variant-east-asian:normal;font-feature-settings:normal;font-variation-settings:normal;text-indent:0;text-align:start;text-decoration:none;text-decoration-line:none;text-decoration-style:solid;text-decoration-color:#000000;letter-spacing:normal;word-spacing:normal;text-transform:none;writing-mode:lr-tb;direction:ltr;text-orientation:mixed;dominant-baseline:auto;baseline-shift:baseline;text-anchor:start;white-space:normal;shape-padding:0;shape-margin:0;inline-size:0;clip-rule:nonzero;display:inline;overflow:visible;visibility:visible;isolation:auto;mix-blend-mode:normal;color-interpolation:sRGB;color-interpolation-filters:linearRGB;solid-color:#000000;solid-opacity:1;vector-effect:none;fill:#fadb41;fill-opacity:1;fill-rule:nonzero;stroke:none;stroke-width:0.444984;stroke-linecap:butt;stroke-linejoin:miter;stroke-miterlimit:4;stroke-dasharray:none;stroke-dashoffset:0;stroke-opacity:1;color-rendering:auto;image-rendering:auto;shape-rendering:auto;text-rendering:auto;enable-background:accumulate;stop-color:#000000;stop-opacity:1" />
        <path
           id="path3112"
           d="m 81.960938,13.6875 v 0.822266 h 0.59375 c 0.465744,0 0.699448,0.120527 0.822265,0.339843 l 0.002,0.002 v 0.002 c 0.134899,0.231255 0.22461,0.652317 0.22461,1.251953 v 1.3125 c -0.255935,-0.107714 -0.512358,-0.220071 -0.769532,-0.291016 -0.377463,-0.104127 -0.804853,-0.154297 -1.283203,-0.154297 -1.187938,0 -2.141718,0.460405 -2.777343,1.355469 l -0.002,0.002 c -0.615578,0.884894 -0.916015,2.00583 -0.916015,3.341797 0,1.334546 0.287087,2.455045 0.876953,3.339844 l 0.002,0.002 c 0.608713,0.893643 1.513985,1.359375 2.632813,1.359375 0.677343,0 1.215139,-0.09225 1.61914,-0.300781 h 0.002 c 0.328247,-0.164639 0.600096,-0.402639 0.855469,-0.660157 l 0.605469,0.777344 H 85.70322 V 16.105469 c 0,-0.632439 -0.04715,-1.108019 -0.158203,-1.455078 C 85.434969,14.30679 85.229349,14.038658 84.939453,13.898438 84.662972,13.74641 84.300215,13.6875 83.832031,13.6875 Z M 82.75,14.144531 h 1.082031 c 0.429622,0 0.731582,0.06485 0.892578,0.154297 l 0.0059,0.0039 0.0078,0.002 c 0.168511,0.07982 0.289268,0.222565 0.373047,0.484374 0.08361,0.261285 0.134766,0.707825 0.134766,1.316407 v 9.628906 h -0.572266 l -0.638672,-0.822266 h -0.30664 l -0.06836,0.07813 c -0.248646,0.282553 -0.539293,0.505975 -0.878906,0.675782 h -0.002 l -0.002,0.002 c -0.301517,0.155957 -0.774269,0.248047 -1.410156,0.248047 -0.998208,0 -1.720888,-0.374771 -2.25586,-1.160157 -0.528867,-0.794028 -0.800781,-1.815573 -0.800781,-3.083984 0,-1.267742 0.283497,-2.285944 0.835937,-3.080078 0.55666,-0.783083 1.329792,-1.16211 2.404297,-1.162109 0.446332,0 0.833894,0.04618 1.16211,0.136718 0.338744,0.09345 0.678182,0.223883 1.019531,0.388672 l 0.328125,0.158203 v -2.007812 c 0,-0.639756 -0.08249,-1.125964 -0.287109,-1.478516 C 83.590216,14.301122 83.184643,14.194335 82.75,14.144531 Z m -0.652344,3.558594 c -0.845217,0 -1.524203,0.401081 -1.933594,1.140625 l -0.002,0.002 c -0.389829,0.727681 -0.574218,1.670123 -0.574218,2.826172 0,1.143322 0.179354,2.086496 0.554687,2.824219 0.380906,0.735542 1.005217,1.146484 1.773438,1.146484 0.526662,0 0.951027,-0.09309 1.263672,-0.316406 0.283377,-0.202412 0.558518,-0.494749 0.835937,-0.873047 l 0.04492,-0.05859 v -6.060547 l -0.132813,-0.0625 C 83.558453,18.099153 83.237476,17.963841 82.960938,17.863281 82.671357,17.75798 82.382129,17.703125 82.097656,17.703125 Z m 0,0.457031 c 0.226535,0 0.461269,0.04149 0.707032,0.13086 0.222459,0.08089 0.500808,0.204069 0.798828,0.339843 v 5.59961 c -0.241013,0.31935 -0.475698,0.571927 -0.689454,0.724609 -0.198363,0.141689 -0.527026,0.230469 -0.998046,0.230469 -0.618283,0 -1.042522,-0.27046 -1.367188,-0.896485 v -0.002 c -0.329883,-0.649151 -0.503906,-1.52064 -0.503906,-2.615234 0,-1.105396 0.180297,-1.972654 0.519531,-2.607422 0.344955,-0.623145 0.821061,-0.904297 1.533203,-0.904297 z"
           style="color:#000000;font-style:normal;font-variant:normal;font-weight:normal;font-stretch:normal;font-size:medium;line-height:1.25;font-family:Philosopher;-inkscape-font-specification:Philosopher;font-variant-ligatures:normal;font-variant-position:normal;font-variant-caps:normal;font-variant-numeric:normal;font-variant-alternates:normal;font-variant-east-asian:normal;font-feature-settings:normal;font-variation-settings:normal;text-indent:0;text-align:start;text-decoration:none;text-decoration-line:none;text-decoration-style:solid;text-decoration-color:#000000;letter-spacing:normal;word-spacing:normal;text-transform:none;writing-mode:lr-tb;direction:ltr;text-orientation:mixed;dominant-baseline:auto;baseline-shift:baseline;text-anchor:start;white-space:normal;shape-padding:0;shape-margin:0;inline-size:0;clip-rule:nonzero;display:inline;overflow:visible;visibility:visible;isolation:auto;mix-blend-mode:normal;color-interpolation:sRGB;color-interpolation-filters:linearRGB;solid-color:#000000;solid-opacity:1;vector-effect:none;fill-opacity:1;fill-rule:nonzero;stroke:none;stroke-width:0.444984;stroke-linecap:butt;stroke-linejoin:miter;stroke-miterlimit:4;stroke-dasharray:none;stroke-dashoffset:0;stroke-opacity:1;color-rendering:auto;image-rendering:auto;shape-rendering:auto;text-rendering:auto;enable-background:accumulate;stop-color:#000000;stop-opacity:1" />
      </g>
      <g
         style="opacity:1;stroke:none;stroke-width:0.444984;stroke-miterlimit:4;stroke-dasharray:none"
         id="g3114">
        <path
           id="path3116"
           d="m 88.248121,19.573949 c 0,-0.620511 -0.08517,-1.076768 -0.255504,-1.368773 -0.170336,-0.304171 -0.511008,-0.456257 -1.022017,-0.456257 h -0.182503 v -0.365006 h 1.460024 c 0.462341,0 0.809097,0.06692 1.040267,0.200753 0.243337,0.121669 0.413674,0.328505 0.511009,0.62051 h 0.09125 c 0.219004,-0.279838 0.511009,-0.517092 0.876015,-0.711761 0.377173,-0.19467 0.81518,-0.292005 1.314021,-0.292005 0.486675,0 0.851681,0.09125 1.095018,0.273754 0.206837,0.158169 0.419757,0.431924 0.638761,0.821264 l -0.730012,0.547509 c -0.133836,-0.182503 -0.328506,-0.316339 -0.58401,-0.401507 -0.255504,-0.09734 -0.547509,-0.146002 -0.876014,-0.146002 -0.365006,0 -0.699595,0.08517 -1.003767,0.255504 -0.304171,0.158169 -0.547509,0.377173 -0.730012,0.657011 v 6.752611 H 88.24812 Z"
           style="color:#000000;font-style:normal;font-variant:normal;font-weight:normal;font-stretch:normal;font-size:medium;line-height:1.25;font-family:Philosopher;-inkscape-font-specification:Philosopher;font-variant-ligatures:normal;font-variant-position:normal;font-variant-caps:normal;font-variant-numeric:normal;font-variant-alternates:normal;font-variant-east-asian:normal;font-feature-settings:normal;font-variation-settings:normal;text-indent:0;text-align:start;text-decoration:none;text-decoration-line:none;text-decoration-style:solid;text-decoration-color:#000000;letter-spacing:normal;word-spacing:normal;text-transform:none;writing-mode:lr-tb;direction:ltr;text-orientation:mixed;dominant-baseline:auto;baseline-shift:baseline;text-anchor:start;white-space:normal;shape-padding:0;shape-margin:0;inline-size:0;clip-rule:nonzero;display:inline;overflow:visible;visibility:visible;isolation:auto;mix-blend-mode:normal;color-interpolation:sRGB;color-interpolation-filters:linearRGB;solid-color:#000000;solid-opacity:1;vector-effect:none;fill:#fadb41;fill-opacity:1;fill-rule:nonzero;stroke:none;stroke-width:0.444984;stroke-linecap:butt;stroke-linejoin:miter;stroke-miterlimit:4;stroke-dasharray:none;stroke-dashoffset:0;stroke-opacity:1;color-rendering:auto;image-rendering:auto;shape-rendering:auto;text-rendering:auto;enable-background:accumulate;stop-color:#000000;stop-opacity:1" />
        <path
           id="path3118"
           d="m 92.080078,16.972656 c -0.528517,0 -1.004372,0.10489 -1.417969,0.31836 h -0.002 v 0.002 c -0.327521,0.174677 -0.57707,0.403978 -0.800781,0.65039 -0.120978,-0.221961 -0.24424,-0.446964 -0.464844,-0.558593 -0.287544,-0.16435 -0.66544,-0.228516 -1.146484,-0.228516 h -1.6875 v 0.820312 h 0.410156 c 0.465745,0 0.699448,0.120528 0.822266,0.339844 l 0.002,0.002 v 0.002 c 0.134899,0.231255 0.224609,0.654271 0.224609,1.253907 v 6.615234 h 2.09961 v -6.888672 c 0.157649,-0.2273 0.351152,-0.413614 0.607421,-0.546875 l 0.002,-0.002 0.0039,-0.002 c 0.27023,-0.151329 0.563059,-0.224609 0.892578,-0.224609 0.305974,0 0.569812,0.0451 0.794922,0.130859 l 0.0039,0.002 h 0.0039 c 0.220464,0.07349 0.369753,0.17999 0.472657,0.320313 l 0.136718,0.185546 1.074219,-0.804687 -0.09766,-0.173828 C 93.786118,17.781059 93.5622,17.484451 93.314477,17.295016 l -0.002,-0.002 c -0.301738,-0.226304 -0.717231,-0.320313 -1.232422,-0.320313 z m 0,0.457032 c 0.458159,0 0.774048,0.08981 0.958984,0.228515 0.131051,0.100654 0.292797,0.33923 0.455079,0.59375 l -0.425782,0.318359 c -0.146991,-0.134302 -0.288883,-0.274679 -0.496093,-0.34375 -0.283664,-0.106641 -0.59983,-0.158203 -0.947266,-0.158203 -0.399834,0 -0.775597,0.09643 -1.113281,0.285157 -0.334165,0.174809 -0.610084,0.420097 -0.8125,0.730468 l -0.03711,0.05664 v 6.59375 h -1.185547 v -6.160156 c 10e-7,-0.639758 -0.08249,-1.127917 -0.287109,-1.480469 -0.183907,-0.32705 -0.590396,-0.433422 -1.027344,-0.482422 h 1.085938 c 0.440329,0 0.751683,0.06913 0.925781,0.169922 l 0.0059,0.0039 0.0059,0.0039 c 0.188925,0.09446 0.314178,0.241365 0.396484,0.488282 l 0.05273,0.15625 h 0.367187 l 0.06836,-0.08789 c 0.196628,-0.251246 0.459835,-0.46833 0.800782,-0.650391 0.340748,-0.17587 0.739818,-0.265624 1.208984,-0.265624 z"
           style="color:#000000;font-style:normal;font-variant:normal;font-weight:normal;font-stretch:normal;font-size:medium;line-height:1.25;font-family:Philosopher;-inkscape-font-specification:Philosopher;font-variant-ligatures:normal;font-variant-position:normal;font-variant-caps:normal;font-variant-numeric:normal;font-variant-alternates:normal;font-variant-east-asian:normal;font-feature-settings:normal;font-variation-settings:normal;text-indent:0;text-align:start;text-decoration:none;text-decoration-line:none;text-decoration-style:solid;text-decoration-color:#000000;letter-spacing:normal;word-spacing:normal;text-transform:none;writing-mode:lr-tb;direction:ltr;text-orientation:mixed;dominant-baseline:auto;baseline-shift:baseline;text-anchor:start;white-space:normal;shape-padding:0;shape-margin:0;inline-size:0;clip-rule:nonzero;display:inline;overflow:visible;visibility:visible;isolation:auto;mix-blend-mode:normal;color-interpolation:sRGB;color-interpolation-filters:linearRGB;solid-color:#000000;solid-opacity:1;vector-effect:none;fill-opacity:1;fill-rule:nonzero;stroke:none;stroke-width:0.444984;stroke-linecap:butt;stroke-linejoin:miter;stroke-miterlimit:4;stroke-dasharray:none;stroke-dashoffset:0;stroke-opacity:1;color-rendering:auto;image-rendering:auto;shape-rendering:auto;text-rendering:auto;enable-background:accumulate;stop-color:#000000;stop-opacity:1" />
      </g>
      <g
         style="opacity:1;stroke:none;stroke-width:0.444984;stroke-miterlimit:4;stroke-dasharray:none"
         id="g3120">
        <path
           id="path3122"
           d="m 98.70552,26.144057 c -0.827347,0 -1.545193,-0.19467 -2.153536,-0.58401 -0.608343,-0.401507 -1.070684,-0.942932 -1.387023,-1.624277 -0.316338,-0.681344 -0.474507,-1.43569 -0.474507,-2.263037 0,-0.827347 0.158169,-1.581692 0.474507,-2.263037 0.316339,-0.681345 0.77868,-1.216687 1.387023,-1.606026 0.608343,-0.401507 1.326189,-0.60226 2.153536,-0.60226 0.827347,0 1.54519,0.200753 2.15353,0.60226 0.60835,0.389339 1.07069,0.924681 1.38703,1.606026 0.31634,0.681345 0.47451,1.43569 0.47451,2.263037 0,0.827347 -0.15817,1.581693 -0.47451,2.263037 -0.31634,0.681345 -0.77868,1.22277 -1.38703,1.624277 -0.60834,0.38934 -1.326183,0.58401 -2.15353,0.58401 z m 0,-0.730012 c 0.450174,0 0.845597,-0.164253 1.186269,-0.492758 0.352841,-0.328506 0.620511,-0.77868 0.803011,-1.350523 0.19467,-0.571843 0.29201,-1.20452 0.29201,-1.898031 0,-0.693511 -0.0973,-1.326188 -0.29201,-1.898031 -0.1825,-0.571843 -0.45017,-1.022017 -0.803011,-1.350522 -0.340672,-0.328505 -0.736095,-0.492758 -1.186269,-0.492758 -0.450175,0 -0.851681,0.164253 -1.20452,0.492758 -0.340673,0.328505 -0.608344,0.778679 -0.803013,1.350522 -0.182503,0.571843 -0.273755,1.20452 -0.273755,1.898031 0,0.693511 0.09125,1.326188 0.273755,1.898031 0.194669,0.571843 0.46234,1.022017 0.803013,1.350523 0.352839,0.328505 0.754345,0.492758 1.20452,0.492758 z"
           style="color:#000000;font-style:normal;font-variant:normal;font-weight:normal;font-stretch:normal;font-size:medium;line-height:1.25;font-family:Philosopher;-inkscape-font-specification:Philosopher;font-variant-ligatures:normal;font-variant-position:normal;font-variant-caps:normal;font-variant-numeric:normal;font-variant-alternates:normal;font-variant-east-asian:normal;font-feature-settings:normal;font-variation-settings:normal;text-indent:0;text-align:start;text-decoration:none;text-decoration-line:none;text-decoration-style:solid;text-decoration-color:#000000;letter-spacing:normal;word-spacing:normal;text-transform:none;writing-mode:lr-tb;direction:ltr;text-orientation:mixed;dominant-baseline:auto;baseline-shift:baseline;text-anchor:start;white-space:normal;shape-padding:0;shape-margin:0;inline-size:0;clip-rule:nonzero;display:inline;overflow:visible;visibility:visible;isolation:auto;mix-blend-mode:normal;color-interpolation:sRGB;color-interpolation-filters:linearRGB;solid-color:#000000;solid-opacity:1;vector-effect:none;fill:#fadb41;fill-opacity:1;fill-rule:nonzero;stroke:none;stroke-width:0.444984;stroke-linecap:butt;stroke-linejoin:miter;stroke-miterlimit:4;stroke-dasharray:none;stroke-dashoffset:0;stroke-opacity:1;color-rendering:auto;image-rendering:auto;shape-rendering:auto;text-rendering:auto;enable-background:accumulate;stop-color:#000000;stop-opacity:1" />
        <path
           id="path3124"
           d="m 98.705078,16.972656 c -0.862685,0 -1.628109,0.212529 -2.27539,0.638672 -4.24e-4,2.71e-4 4.23e-4,0.0017 0,0.002 -0.643492,0.412172 -1.138051,0.984691 -1.470704,1.701172 -0.33119,0.713334 -0.496093,1.501 -0.496093,2.357422 0,0.856423 0.164903,1.646042 0.496093,2.359375 0.332653,0.716482 0.824112,1.294578 1.466797,1.71875 l 0.002,0.002 h 0.002 c 0.647892,0.414652 1.412258,0.621094 2.27539,0.621094 0.863132,0 1.629449,-0.206442 2.277339,-0.621094 l 0.002,-0.002 c 0.64268,-0.424172 1.13609,-1.002268 1.46874,-1.71875 0.3312,-0.713333 0.4961,-1.502952 0.4961,-2.359375 0,-0.856422 -0.1649,-1.644088 -0.4961,-2.357422 -0.33246,-0.716075 -0.82579,-1.289052 -1.46874,-1.701172 -0.64803,-0.427697 -1.415049,-0.640625 -2.279299,-0.640625 z m 0,0.457032 c 0.790443,0 1.458682,0.189136 2.027342,0.564453 h 0.002 l 0.002,0.002 c 0.57258,0.366447 1.00292,0.864029 1.30273,1.509765 0.30149,0.649356 0.45313,1.367745 0.45313,2.166016 0,0.798272 -0.15164,1.518614 -0.45313,2.167969 -0.29961,0.645322 -0.73185,1.148676 -1.30468,1.527344 -7.9e-4,5.19e-4 -0.001,0.0014 -0.002,0.002 -0.56804,0.362556 -1.237391,0.546875 -2.027342,0.546875 -0.791562,0 -1.460502,-0.1848 -2.029297,-0.548828 -0.572827,-0.378668 -1.005073,-0.882021 -1.304687,-1.527344 -0.301486,-0.649355 -0.453125,-1.369697 -0.453125,-2.167969 0,-0.798271 0.151639,-1.51666 0.453125,-2.166016 0.299806,-0.645737 0.732113,-1.143318 1.304687,-1.509765 v -0.002 h 0.002 c 0.568662,-0.375317 1.2369,-0.564453 2.027344,-0.564453 z m 0,0.273437 c -0.505665,0 -0.971122,0.19321 -1.359375,0.554687 h -0.002 l -0.002,0.002 c -0.372655,0.359345 -0.655917,0.843747 -0.859375,1.441406 l -0.002,0.002 v 0.002 c -0.190625,0.59729 -0.285156,1.253274 -0.285157,1.966797 0,0.713523 0.09453,1.37146 0.285157,1.96875 v 0.002 l 0.002,0.002 c 0.203458,0.597659 0.48672,1.08206 0.859375,1.441407 h 0.002 l 0.002,0.002 c 0.388253,0.361477 0.85371,0.554687 1.359375,0.554687 0.504152,0 0.9656,-0.193431 1.341802,-0.554687 0.3858,-0.359195 0.67168,-0.845135 0.86328,-1.44336 0.20374,-0.598476 0.30468,-1.257799 0.30468,-1.972656 0,-0.714857 -0.10094,-1.372227 -0.30468,-1.970703 -0.1916,-0.598225 -0.47748,-1.084166 -0.86328,-1.44336 -0.376202,-0.361256 -0.83765,-0.554687 -1.341802,-0.554687 z m 0,0.457031 c 0.394683,0 0.724768,0.134082 1.029297,0.427735 v 0.002 l 0.002,0.002 c 0.318885,0.296887 0.566835,0.708624 0.740235,1.251953 l 0.002,0.002 v 0.002 c 0.1856,0.545209 0.27929,1.152053 0.27929,1.824219 0,0.672166 -0.0937,1.280963 -0.27929,1.826172 V 23.5 l -0.002,0.002 c -0.1734,0.543329 -0.42135,0.955066 -0.740235,1.251953 l -0.002,0.002 v 0.002 c -0.304529,0.293654 -0.634614,0.427735 -1.029297,0.427735 -0.394055,0 -0.729894,-0.137085 -1.046875,-0.431641 -0.306511,-0.296595 -0.557028,-0.709944 -0.742187,-1.251953 -0.174382,-0.546395 -0.263672,-1.156578 -0.263672,-1.830078 0,-0.6735 0.08929,-1.28173 0.263672,-1.828125 0.185159,-0.542009 0.435676,-0.955359 0.742187,-1.251953 0.316981,-0.294556 0.65282,-0.431641 1.046875,-0.431641 z"
           style="color:#000000;font-style:normal;font-variant:normal;font-weight:normal;font-stretch:normal;font-size:medium;line-height:1.25;font-family:Philosopher;-inkscape-font-specification:Philosopher;font-variant-ligatures:normal;font-variant-position:normal;font-variant-caps:normal;font-variant-numeric:normal;font-variant-alternates:normal;font-variant-east-asian:normal;font-feature-settings:normal;font-variation-settings:normal;text-indent:0;text-align:start;text-decoration:none;text-decoration-line:none;text-decoration-style:solid;text-decoration-color:#000000;letter-spacing:normal;word-spacing:normal;text-transform:none;writing-mode:lr-tb;direction:ltr;text-orientation:mixed;dominant-baseline:auto;baseline-shift:baseline;text-anchor:start;white-space:normal;shape-padding:0;shape-margin:0;inline-size:0;clip-rule:nonzero;display:inline;overflow:visible;visibility:visible;isolation:auto;mix-blend-mode:normal;color-interpolation:sRGB;color-interpolation-filters:linearRGB;solid-color:#000000;solid-opacity:1;vector-effect:none;fill-opacity:1;fill-rule:nonzero;stroke:none;stroke-width:0.444984;stroke-linecap:butt;stroke-linejoin:miter;stroke-miterlimit:4;stroke-dasharray:none;stroke-dashoffset:0;stroke-opacity:1;color-rendering:auto;image-rendering:auto;shape-rendering:auto;text-rendering:auto;enable-background:accumulate;stop-color:#000000;stop-opacity:1" />
      </g>
    </g>
    <g
       transform="matrix(0.99482297,0,0,1.0142766,-13.049564,-1.6015129)"
       style="font-size:15.5036px;line-height:1.25;font-family:Philosopher;-inkscape-font-specification:Philosopher;fill:#fadb41;fill-opacity:1;stroke:none;stroke-width:0.378012;stroke-miterlimit:4;stroke-dasharray:none"
       id="text2982"
       aria-label="esar">
      <g
         style="opacity:1;stroke:none;stroke-width:0.378012;stroke-miterlimit:4;stroke-dasharray:none"
         id="g3126">
        <path
           id="path3128"
           d="m 26.334352,35.718284 c -0.70283,0 -1.297135,-0.165372 -1.782914,-0.496116 -0.485779,-0.341079 -0.852698,-0.795851 -1.100756,-1.364316 -0.248057,-0.578801 -0.372086,-1.224785 -0.372086,-1.93795 0,-0.70283 0.124029,-1.343646 0.372086,-1.922447 0.248058,-0.578801 0.604641,-1.033573 1.069749,-1.364317 0.475443,-0.341079 1.028405,-0.511618 1.658885,-0.511618 1.043909,0 1.819089,0.294568 2.32554,0.883705 0.516787,0.578801 0.77518,1.421163 0.77518,2.527087 l -0.03101,0.620144 h -4.697591 c 0,0.868201 0.186043,1.576199 0.558129,2.123993 0.372087,0.547794 0.883706,0.821691 1.534857,0.821691 0.485779,0 0.894041,-0.103357 1.224784,-0.310072 0.341079,-0.206715 0.656319,-0.516787 0.94572,-0.930216 L 29.125,34.090406 c -0.341079,0.568465 -0.739005,0.981895 -1.193777,1.240288 -0.454773,0.258393 -0.987063,0.38759 -1.596871,0.38759 z m 1.472842,-4.185972 c 0,-0.909545 -0.134365,-1.602039 -0.403094,-2.077483 -0.268729,-0.475443 -0.67699,-0.713165 -1.224784,-0.713165 -0.310072,0 -0.589137,0.124029 -0.837195,0.372086 -0.248057,0.237722 -0.444436,0.568465 -0.589136,0.99223 -0.134365,0.423765 -0.201547,0.899209 -0.201547,1.426332 z"
           style="color:#000000;font-style:normal;font-variant:normal;font-weight:normal;font-stretch:normal;font-size:medium;line-height:1.25;font-family:Philosopher;-inkscape-font-specification:Philosopher;font-variant-ligatures:normal;font-variant-position:normal;font-variant-caps:normal;font-variant-numeric:normal;font-variant-alternates:normal;font-variant-east-asian:normal;font-feature-settings:normal;font-variation-settings:normal;text-indent:0;text-align:start;text-decoration:none;text-decoration-line:none;text-decoration-style:solid;text-decoration-color:#000000;letter-spacing:normal;word-spacing:normal;text-transform:none;writing-mode:lr-tb;direction:ltr;text-orientation:mixed;dominant-baseline:auto;baseline-shift:baseline;text-anchor:start;white-space:normal;shape-padding:0;shape-margin:0;inline-size:0;clip-rule:nonzero;display:inline;overflow:visible;visibility:visible;isolation:auto;mix-blend-mode:normal;color-interpolation:sRGB;color-interpolation-filters:linearRGB;solid-color:#000000;solid-opacity:1;vector-effect:none;fill:#fadb41;fill-opacity:1;fill-rule:nonzero;stroke:none;stroke-width:0.378012;stroke-linecap:butt;stroke-linejoin:miter;stroke-miterlimit:4;stroke-dasharray:none;stroke-dashoffset:0;stroke-opacity:1;color-rendering:auto;image-rendering:auto;shape-rendering:auto;text-rendering:auto;enable-background:accumulate;stop-color:#000000;stop-opacity:1" />
        <path
           id="path3130"
           d="m 26.179688,27.927734 c -0.665427,0 -1.263074,0.1841 -1.771485,0.548828 -0.494752,0.352186 -0.874915,0.838995 -1.134765,1.445313 -0.259246,0.604906 -0.388672,1.272417 -0.388672,1.998047 0,0.735634 0.129262,1.408382 0.388672,2.013672 v 0.002 c 0.260922,0.597945 0.651493,1.084053 1.166015,1.445312 h 0.002 v 0.002 c 0.521719,0.355214 1.159349,0.529297 1.892578,0.529297 0.637181,0 1.206239,-0.135336 1.69336,-0.412109 0.489752,-0.278268 0.909707,-0.720606 1.263672,-1.310547 l 0.08984,-0.148437 -0.609375,-0.458985 -0.115234,0.164063 c -0.277591,0.396558 -0.573837,0.687327 -0.886719,0.876953 h -0.002 -0.002 c -0.294583,0.184114 -0.662803,0.28125 -1.121094,0.28125 -0.596806,0 -1.032437,-0.232 -1.375,-0.736328 -0.312194,-0.459621 -0.441647,-1.092562 -0.472656,-1.822266 h 4.636719 l 0.04102,-0.808594 v -0.0039 c 0,-1.134946 -0.265805,-2.02984 -0.822265,-2.654297 l -0.002,-0.002 c -0.5494,-0.637657 -1.391503,-0.949219 -2.470703,-0.949219 z m 0,0.386719 c 1.007452,0 1.714191,0.277183 2.177734,0.816406 l 0.002,0.002 v 0.002 c 0.475591,0.532662 0.72619,1.321976 0.726563,2.396484 l -0.02148,0.427734 h -4.707031 v 0.19336 c 0,0.895886 0.192972,1.645263 0.591797,2.232422 0.40161,0.591259 0.989816,0.90625 1.695312,0.90625 0.51185,0 0.957886,-0.109866 1.324219,-0.337891 0.315641,-0.191298 0.593823,-0.498855 0.859375,-0.841797 l 0.0098,0.0059 c -0.301784,0.456963 -0.627537,0.832185 -1.001953,1.044921 -0.422425,0.240014 -0.919518,0.363282 -1.501954,0.363282 -0.67243,0 -1.223988,-0.156616 -1.673828,-0.462891 -0.455893,-0.320704 -0.796448,-0.743163 -1.03125,-1.28125 -0.236705,-0.552313 -0.357422,-1.170632 -0.357422,-1.861328 0,-0.680031 0.120553,-1.293007 0.357422,-1.845703 0.236048,-0.550777 0.569049,-0.973971 1.003906,-1.283203 0.442477,-0.317429 0.951342,-0.476563 1.546876,-0.476563 z m 0,0.234375 c -0.360269,0 -0.694747,0.151325 -0.970704,0.425781 -0.275998,0.264499 -0.486609,0.623034 -0.638672,1.06836 l -0.002,0.002 v 0.002 c -0.141361,0.445833 -0.210937,0.942739 -0.210937,1.486328 v 0.193359 h 3.644531 v -0.193359 c 0,-0.92863 -0.13491,-1.652299 -0.429687,-2.173828 -0.296485,-0.52455 -0.788718,-0.810547 -1.392578,-0.810547 z m 0,0.386719 c 0.491727,0 0.815667,0.188898 1.05664,0.615234 0.218772,0.387059 0.316051,1.024946 0.339844,1.78711 h -2.802734 c 0.01588,-0.42432 0.05486,-0.829436 0.164062,-1.173829 0.137142,-0.399734 0.319849,-0.700076 0.539062,-0.910156 l 0.002,-0.002 V 29.25 c 0.219509,-0.219509 0.442778,-0.314453 0.701172,-0.314453 z"
           style="color:#000000;font-style:normal;font-variant:normal;font-weight:normal;font-stretch:normal;font-size:medium;line-height:1.25;font-family:Philosopher;-inkscape-font-specification:Philosopher;font-variant-ligatures:normal;font-variant-position:normal;font-variant-caps:normal;font-variant-numeric:normal;font-variant-alternates:normal;font-variant-east-asian:normal;font-feature-settings:normal;font-variation-settings:normal;text-indent:0;text-align:start;text-decoration:none;text-decoration-line:none;text-decoration-style:solid;text-decoration-color:#000000;letter-spacing:normal;word-spacing:normal;text-transform:none;writing-mode:lr-tb;direction:ltr;text-orientation:mixed;dominant-baseline:auto;baseline-shift:baseline;text-anchor:start;white-space:normal;shape-padding:0;shape-margin:0;inline-size:0;clip-rule:nonzero;display:inline;overflow:visible;visibility:visible;isolation:auto;mix-blend-mode:normal;color-interpolation:sRGB;color-interpolation-filters:linearRGB;solid-color:#000000;solid-opacity:1;vector-effect:none;fill-opacity:1;fill-rule:nonzero;stroke:none;stroke-width:0.378012;stroke-linecap:butt;stroke-linejoin:miter;stroke-miterlimit:4;stroke-dasharray:none;stroke-dashoffset:0;stroke-opacity:1;color-rendering:auto;image-rendering:auto;shape-rendering:auto;text-rendering:auto;enable-background:accumulate;stop-color:#000000;stop-opacity:1" />
      </g>
      <g
         style="opacity:1;stroke:none;stroke-width:0.378012;stroke-miterlimit:4;stroke-dasharray:none"
         id="g3132">
        <path
           id="path3134"
           d="m 33.496999,35.718284 c -1.188609,0 -1.989629,-0.206715 -2.403058,-0.620144 -0.175707,-0.175708 -0.284233,-0.372087 -0.325576,-0.589137 -0.04134,-0.227386 -0.06201,-0.573633 -0.06201,-1.038741 h 0.310072 c 0.09302,0.516787 0.31524,0.91988 0.666655,1.20928 0.361751,0.279065 0.863034,0.418598 1.503849,0.418598 0.568465,0 0.99223,-0.09819 1.271295,-0.294569 0.289401,-0.196379 0.434101,-0.45994 0.434101,-0.790683 0,-0.299737 -0.113693,-0.55813 -0.341079,-0.77518 -0.217051,-0.217051 -0.568466,-0.423765 -1.054245,-0.620144 l -0.930216,-0.38759 c -0.620144,-0.248058 -1.085252,-0.537459 -1.395324,-0.868202 -0.310072,-0.330743 -0.465108,-0.739005 -0.465108,-1.224784 0,-0.63048 0.237722,-1.121427 0.713165,-1.472842 0.475444,-0.361751 1.09042,-0.542626 1.844929,-0.542626 1.136931,0 1.912111,0.206715 2.32554,0.620144 0.175707,0.175707 0.284232,0.372086 0.325575,0.589136 0.04135,0.217051 0.06202,0.563298 0.06202,1.038742 h -0.310072 c -0.08269,-0.516787 -0.299736,-0.914713 -0.651151,-1.193778 -0.351415,-0.2894 -0.832027,-0.4341 -1.441835,-0.4341 -0.485779,0 -0.868202,0.103357 -1.147267,0.310072 -0.268729,0.196379 -0.403093,0.454772 -0.403093,0.77518 0,0.537458 0.413429,0.976727 1.240288,1.317806 l 0.930216,0.38759 c 0.70283,0.2894 1.214449,0.599472 1.534856,0.930216 0.320408,0.320407 0.480612,0.733837 0.480612,1.240288 0,0.630479 -0.253226,1.126594 -0.759677,1.488345 -0.506451,0.351415 -1.157602,0.527123 -1.953453,0.527123 z"
           style="color:#000000;font-style:normal;font-variant:normal;font-weight:normal;font-stretch:normal;font-size:medium;line-height:1.25;font-family:Philosopher;-inkscape-font-specification:Philosopher;font-variant-ligatures:normal;font-variant-position:normal;font-variant-caps:normal;font-variant-numeric:normal;font-variant-alternates:normal;font-variant-east-asian:normal;font-feature-settings:normal;font-variation-settings:normal;text-indent:0;text-align:start;text-decoration:none;text-decoration-line:none;text-decoration-style:solid;text-decoration-color:#000000;letter-spacing:normal;word-spacing:normal;text-transform:none;writing-mode:lr-tb;direction:ltr;text-orientation:mixed;dominant-baseline:auto;baseline-shift:baseline;text-anchor:start;white-space:normal;shape-padding:0;shape-margin:0;inline-size:0;clip-rule:nonzero;display:inline;overflow:visible;visibility:visible;isolation:auto;mix-blend-mode:normal;color-interpolation:sRGB;color-interpolation-filters:linearRGB;solid-color:#000000;solid-opacity:1;vector-effect:none;fill:#fadb41;fill-opacity:1;fill-rule:nonzero;stroke:none;stroke-width:0.378012;stroke-linecap:butt;stroke-linejoin:miter;stroke-miterlimit:4;stroke-dasharray:none;stroke-dashoffset:0;stroke-opacity:1;color-rendering:auto;image-rendering:auto;shape-rendering:auto;text-rendering:auto;enable-background:accumulate;stop-color:#000000;stop-opacity:1" />
        <path
           id="path3136"
           d="m 33.263672,27.927734 c -0.784762,0 -1.444428,0.191094 -1.958984,0.582032 -0.519009,0.38432 -0.792969,0.948418 -0.792969,1.626953 0,0.527012 0.175128,0.992141 0.517578,1.357422 0.337628,0.360136 0.827465,0.661063 1.464844,0.916015 l 0.929687,0.386719 c 0.472077,0.190839 0.803636,0.391526 0.990234,0.578125 l 0.002,0.002 h 0.002 c 0.195156,0.186286 0.28125,0.385988 0.28125,0.636719 0,0.27422 -0.102038,0.460912 -0.34961,0.628906 l -0.002,0.002 c -0.228416,0.160738 -0.614006,0.259766 -1.160156,0.259766 -0.610858,0 -1.065014,-0.133089 -1.382812,-0.376953 -0.313037,-0.258604 -0.51124,-0.611701 -0.597657,-1.091797 l -0.0293,-0.158203 h -0.666015 v 0.193359 c 0,0.47085 0.02091,0.822001 0.06641,1.072266 v 0.002 c 0.04899,0.257179 0.18036,0.490906 0.378906,0.689453 0.479092,0.479091 1.327984,0.677734 2.539063,0.677734 0.824375,0 1.518939,-0.183979 2.064453,-0.5625 h 0.002 c 0.549783,-0.392701 0.841797,-0.964114 0.841797,-1.646484 0,-0.546383 -0.179858,-1.018703 -0.535156,-1.375 -0.349714,-0.360996 -0.883299,-0.679483 -1.59961,-0.974609 h -0.002 L 33.337891,30.964844 C 32.941047,30.801146 32.654289,30.616691 32.474609,30.425781 32.29493,30.234872 32.21875,30.04521 32.21875,29.826172 c 0,-0.266229 0.09407,-0.450433 0.322266,-0.617188 l 0.002,-0.002 c 0.235846,-0.174701 0.572959,-0.271484 1.03125,-0.271484 0.579151,0 1.009406,0.136194 1.318359,0.390625 h 0.002 l 0.002,0.002 c 0.311589,0.247439 0.5033,0.592398 0.580078,1.072266 l 0.02539,0.162109 h 0.669922 v -0.193359 c 0,-0.481062 -0.02019,-0.831617 -0.06641,-1.074219 -0.04899,-0.25718 -0.18036,-0.490907 -0.378907,-0.689453 -0.476236,-0.476237 -1.302469,-0.677735 -2.46289,-0.677735 z m 0,0.386719 c 1.11344,0 1.838831,0.213831 2.189453,0.564453 0.152868,0.152869 0.237785,0.311361 0.271484,0.488282 0.02944,0.154538 0.04022,0.47016 0.04687,0.808593 h -0.002 c -0.110764,-0.460805 -0.289502,-0.878515 -0.630859,-1.15039 -4.5e-4,-3.71e-4 -0.0015,3.7e-4 -0.002,0 -0.39374,-0.32361 -0.922767,-0.476563 -1.5625,-0.476563 -0.513268,0 -0.939435,0.108928 -1.261719,0.347656 -0.308306,0.225976 -0.482422,0.55572 -0.482422,0.929688 0,0.31842 0.129531,0.616875 0.363281,0.865234 0.233424,0.248013 0.566948,0.4556 0.996094,0.632813 l 0.931641,0.386719 c 0.688382,0.283451 1.17796,0.586547 1.46875,0.886718 h 0.002 v 0.002 c 0.284307,0.284307 0.423828,0.637933 0.423828,1.103516 0,0.577571 -0.214346,0.997589 -0.675781,1.328125 -4.62e-4,3.21e-4 -0.0015,-3.2e-4 -0.002,0 -0.467205,0.323682 -1.075228,0.494141 -1.841797,0.494141 -1.166141,0 -1.917858,-0.216686 -2.265625,-0.564453 -0.152402,-0.152403 -0.237571,-0.31006 -0.271485,-0.486329 v -0.002 c -0.0299,-0.16514 -0.04033,-0.476077 -0.04687,-0.808594 h 0.002 c 0.118496,0.464189 0.304685,0.884535 0.646485,1.166016 l 0.002,0.002 h 0.002 c 0.405569,0.312869 0.9541,0.458985 1.623047,0.458985 0.589014,0 1.049389,-0.09565 1.378906,-0.326172 5.24e-4,-3.56e-4 -5.23e-4,-0.0016 0,-0.002 0.330253,-0.224768 0.519532,-0.562565 0.519532,-0.949219 0,-0.347221 -0.140982,-0.66476 -0.398438,-0.91211 -0.246993,-0.246992 -0.617307,-0.46056 -1.115234,-0.662109 l -0.002,-0.002 -0.929687,-0.386719 h -0.002 C 32.035717,31.80957 31.59497,31.529819 31.312454,31.228469 31.03476,30.932262 30.900345,30.581218 30.900345,30.136672 c 0,-0.581767 0.203872,-0.99792 0.634765,-1.316407 v -0.002 h 0.002 c 0.43613,-0.331837 1.003026,-0.503906 1.726563,-0.503906 z"
           style="color:#000000;font-style:normal;font-variant:normal;font-weight:normal;font-stretch:normal;font-size:medium;line-height:1.25;font-family:Philosopher;-inkscape-font-specification:Philosopher;font-variant-ligatures:normal;font-variant-position:normal;font-variant-caps:normal;font-variant-numeric:normal;font-variant-alternates:normal;font-variant-east-asian:normal;font-feature-settings:normal;font-variation-settings:normal;text-indent:0;text-align:start;text-decoration:none;text-decoration-line:none;text-decoration-style:solid;text-decoration-color:#000000;letter-spacing:normal;word-spacing:normal;text-transform:none;writing-mode:lr-tb;direction:ltr;text-orientation:mixed;dominant-baseline:auto;baseline-shift:baseline;text-anchor:start;white-space:normal;shape-padding:0;shape-margin:0;inline-size:0;clip-rule:nonzero;display:inline;overflow:visible;visibility:visible;isolation:auto;mix-blend-mode:normal;color-interpolation:sRGB;color-interpolation-filters:linearRGB;solid-color:#000000;solid-opacity:1;vector-effect:none;fill-opacity:1;fill-rule:nonzero;stroke:none;stroke-width:0.378012;stroke-linecap:butt;stroke-linejoin:miter;stroke-miterlimit:4;stroke-dasharray:none;stroke-dashoffset:0;stroke-opacity:1;color-rendering:auto;image-rendering:auto;shape-rendering:auto;text-rendering:auto;enable-background:accumulate;stop-color:#000000;stop-opacity:1" />
      </g>
      <g
         style="opacity:1;stroke:none;stroke-width:0.378012;stroke-miterlimit:4;stroke-dasharray:none"
         id="g3138">
        <path
           id="path3140"
           d="m 39.71393,35.718284 c -0.330744,0 -0.666655,-0.06718 -1.007734,-0.201547 -0.341079,-0.144701 -0.635648,-0.377255 -0.883706,-0.697662 -0.237722,-0.320408 -0.356583,-0.744173 -0.356583,-1.271295 0,-0.785516 0.361751,-1.343646 1.085253,-1.674389 0.733837,-0.330743 1.689892,-0.496115 2.868166,-0.496115 h 0.465108 c 0,-1.012902 -0.139533,-1.705396 -0.418598,-2.077483 -0.279065,-0.372086 -0.682158,-0.558129 -1.20928,-0.558129 -0.465108,0 -0.837195,0.09819 -1.11626,0.294568 -0.279065,0.196379 -0.475443,0.537458 -0.589136,1.023238 h -0.697663 c 0,-0.351415 0.02067,-0.625312 0.06202,-0.821691 0.04134,-0.206715 0.149865,-0.397926 0.325576,-0.573633 0.186043,-0.186043 0.490947,-0.320408 0.914712,-0.403094 0.434101,-0.09302 0.904377,-0.139532 1.410828,-0.139532 0.837194,0 1.498681,0.227386 1.98446,0.682158 0.48578,0.444437 0.72867,1.302303 0.72867,2.573598 v 4.185972 h -0.77518 l -0.542626,-0.697662 h -0.07752 c -0.186043,0.237721 -0.45994,0.439268 -0.821691,0.60464 -0.361751,0.165372 -0.811355,0.248058 -1.348813,0.248058 z m 0.697662,-0.697662 c 0.341079,0 0.625311,-0.08269 0.852698,-0.248058 0.227386,-0.165372 0.434101,-0.392758 0.620144,-0.682158 V 31.99742 h -0.465108 c -0.764845,0 -1.369485,0.1447 -1.813922,0.4341 -0.444436,0.279065 -0.666654,0.651152 -0.666654,1.11626 0,0.475443 0.139532,0.842362 0.418597,1.100755 0.289401,0.248058 0.640816,0.372087 1.054245,0.372087 z"
           style="color:#000000;font-style:normal;font-variant:normal;font-weight:normal;font-stretch:normal;font-size:medium;line-height:1.25;font-family:Philosopher;-inkscape-font-specification:Philosopher;font-variant-ligatures:normal;font-variant-position:normal;font-variant-caps:normal;font-variant-numeric:normal;font-variant-alternates:normal;font-variant-east-asian:normal;font-feature-settings:normal;font-variation-settings:normal;text-indent:0;text-align:start;text-decoration:none;text-decoration-line:none;text-decoration-style:solid;text-decoration-color:#000000;letter-spacing:normal;word-spacing:normal;text-transform:none;writing-mode:lr-tb;direction:ltr;text-orientation:mixed;dominant-baseline:auto;baseline-shift:baseline;text-anchor:start;white-space:normal;shape-padding:0;shape-margin:0;inline-size:0;clip-rule:nonzero;display:inline;overflow:visible;visibility:visible;isolation:auto;mix-blend-mode:normal;color-interpolation:sRGB;color-interpolation-filters:linearRGB;solid-color:#000000;solid-opacity:1;vector-effect:none;fill:#fadb41;fill-opacity:1;fill-rule:nonzero;stroke:none;stroke-width:0.378012;stroke-linecap:butt;stroke-linejoin:miter;stroke-miterlimit:4;stroke-dasharray:none;stroke-dashoffset:0;stroke-opacity:1;color-rendering:auto;image-rendering:auto;shape-rendering:auto;text-rendering:auto;enable-background:accumulate;stop-color:#000000;stop-opacity:1" />
        <path
           id="path3142"
           d="m 40.566406,27.927734 c -0.518316,0 -1.001973,0.04828 -1.451172,0.144532 -0.442791,0.08698 -0.784697,0.228056 -1.011718,0.455078 -0.196527,0.196523 -0.326937,0.422787 -0.376954,0.669922 -0.04615,0.219184 -0.06641,0.502312 -0.06641,0.861328 v 0.195312 h 1.044922 l 0.03516,-0.15039 c 0.106996,-0.457166 0.28403,-0.747978 0.511719,-0.908204 0.237626,-0.167217 0.566073,-0.259765 1.003906,-0.259765 0.481524,0 0.810765,0.155238 1.054688,0.480469 0.205906,0.274541 0.317495,0.930032 0.34375,1.767578 h -0.234375 c -1.196407,0 -2.179959,0.166963 -2.949219,0.513672 -0.776262,0.354862 -1.199219,1.004595 -1.199219,1.849609 0,0.556255 0.126508,1.025469 0.394532,1.386719 l 0.002,0.002 0.002,0.002 c 0.265734,0.343238 0.588065,0.599624 0.960937,0.757812 h 0.002 l 0.002,0.002 c 0.360953,0.142194 0.723091,0.214843 1.080078,0.214843 0.557334,0 1.032978,-0.08516 1.427734,-0.265625 0.320407,-0.146471 0.549339,-0.343106 0.75,-0.554687 l 0.517578,0.666015 h 1.0625 v -4.380859 c 0,-1.294567 -0.236675,-2.207953 -0.789062,-2.714844 -0.526328,-0.492731 -1.244903,-0.734375 -2.117188,-0.734375 z m 0,0.386719 c 0.802104,0 1.406331,0.214047 1.851563,0.630859 h 0.002 v 0.002 c 0.417882,0.382317 0.666016,1.183076 0.666016,2.429687 v 3.992188 h -0.486329 l -0.542968,-0.697266 h -0.267579 l -0.05664,0.07422 c -0.161913,0.206888 -0.408758,0.392831 -0.75,0.548828 -0.328746,0.150284 -0.749997,0.230469 -1.267578,0.230469 -0.303159,0 -0.613896,-0.06209 -0.933594,-0.1875 l -0.0039,-0.002 c -0.306817,-0.13096 -0.56983,-0.337742 -0.798828,-0.632813 -0.207421,-0.279567 -0.31836,-0.658261 -0.31836,-1.15625 0,-0.726018 0.299962,-1.191423 0.970703,-1.498047 v 0.002 c 0.698414,-0.314778 1.628922,-0.480468 2.789063,-0.480469 h 0.658203 V 31.377 c 0,-1.030699 -0.127321,-1.753746 -0.457031,-2.193359 -0.314206,-0.418942 -0.792514,-0.634766 -1.365235,-0.634766 -0.492382,0 -0.906058,0.102586 -1.226562,0.328125 -0.286806,0.201826 -0.451536,0.570699 -0.578125,0.988281 H 38.0606 c 0.0077,-0.22864 0.01742,-0.457263 0.04492,-0.58789 v -0.002 c 0.03306,-0.165296 0.119223,-0.320398 0.273437,-0.47461 0.144171,-0.144171 0.41227,-0.271134 0.814453,-0.349609 h 0.002 0.002 c 0.419002,-0.08979 0.874554,-0.136719 1.36914,-0.136719 z m 0.853516,3.488281 c -0.789287,0 -1.432886,0.149658 -1.919922,0.466797 -0.483857,0.304817 -0.755859,0.751457 -0.755859,1.277344 0,0.51336 0.159878,0.945489 0.482421,1.244141 l 0.002,0.002 0.002,0.002 c 0.324022,0.277733 0.729452,0.419922 1.18164,0.419922 0.3724,0 0.702135,-0.09267 0.966797,-0.285156 0.250542,-0.182213 0.471585,-0.42889 0.667969,-0.734376 l 0.03125,-0.04883 v -2.34375 z m 0,0.388672 h 0.271484 v 1.828125 c -0.168063,0.252654 -0.347437,0.454918 -0.541015,0.595703 -0.190111,0.138263 -0.428523,0.210938 -0.738282,0.210938 -0.373721,0 -0.671425,-0.104998 -0.925781,-0.322266 -0.234446,-0.218015 -0.353516,-0.520578 -0.353516,-0.957031 0,-0.403381 0.172799,-0.69789 0.576172,-0.951172 l 0.002,-0.002 c 0.401837,-0.261661 0.968582,-0.402344 1.708984,-0.402344 z"
           style="color:#000000;font-style:normal;font-variant:normal;font-weight:normal;font-stretch:normal;font-size:medium;line-height:1.25;font-family:Philosopher;-inkscape-font-specification:Philosopher;font-variant-ligatures:normal;font-variant-position:normal;font-variant-caps:normal;font-variant-numeric:normal;font-variant-alternates:normal;font-variant-east-asian:normal;font-feature-settings:normal;font-variation-settings:normal;text-indent:0;text-align:start;text-decoration:none;text-decoration-line:none;text-decoration-style:solid;text-decoration-color:#000000;letter-spacing:normal;word-spacing:normal;text-transform:none;writing-mode:lr-tb;direction:ltr;text-orientation:mixed;dominant-baseline:auto;baseline-shift:baseline;text-anchor:start;white-space:normal;shape-padding:0;shape-margin:0;inline-size:0;clip-rule:nonzero;display:inline;overflow:visible;visibility:visible;isolation:auto;mix-blend-mode:normal;color-interpolation:sRGB;color-interpolation-filters:linearRGB;solid-color:#000000;solid-opacity:1;vector-effect:none;fill-opacity:1;fill-rule:nonzero;stroke:none;stroke-width:0.378012;stroke-linecap:butt;stroke-linejoin:miter;stroke-miterlimit:4;stroke-dasharray:none;stroke-dashoffset:0;stroke-opacity:1;color-rendering:auto;image-rendering:auto;shape-rendering:auto;text-rendering:auto;enable-background:accumulate;stop-color:#000000;stop-opacity:1" />
      </g>
      <g
         style="opacity:1;stroke:none;stroke-width:0.378012;stroke-miterlimit:4;stroke-dasharray:none"
         id="g3144">
        <path
           id="path3146"
           d="m 45.558771,30.136988 c 0,-0.527123 -0.07235,-0.914713 -0.21705,-1.16277 -0.1447,-0.258393 -0.434101,-0.38759 -0.868202,-0.38759 h -0.155036 v -0.310072 h 1.240288 c 0.392758,0 0.687327,0.05685 0.883706,0.170539 0.206715,0.103357 0.351415,0.279065 0.4341,0.527123 h 0.07752 c 0.186043,-0.237722 0.434101,-0.439269 0.744173,-0.604641 0.320408,-0.165371 0.692494,-0.248057 1.116259,-0.248057 0.413429,0 0.723501,0.07752 0.930216,0.232554 0.175708,0.134364 0.356583,0.366918 0.542626,0.697662 l -0.620144,0.465108 c -0.113693,-0.155036 -0.279064,-0.268729 -0.496115,-0.34108 -0.21705,-0.08269 -0.465108,-0.124028 -0.744173,-0.124028 -0.310072,0 -0.594305,0.07235 -0.852698,0.21705 -0.258393,0.134365 -0.465108,0.320408 -0.620144,0.55813 v 5.736332 h -1.395324 z"
           style="color:#000000;font-style:normal;font-variant:normal;font-weight:normal;font-stretch:normal;font-size:medium;line-height:1.25;font-family:Philosopher;-inkscape-font-specification:Philosopher;font-variant-ligatures:normal;font-variant-position:normal;font-variant-caps:normal;font-variant-numeric:normal;font-variant-alternates:normal;font-variant-east-asian:normal;font-feature-settings:normal;font-variation-settings:normal;text-indent:0;text-align:start;text-decoration:none;text-decoration-line:none;text-decoration-style:solid;text-decoration-color:#000000;letter-spacing:normal;word-spacing:normal;text-transform:none;writing-mode:lr-tb;direction:ltr;text-orientation:mixed;dominant-baseline:auto;baseline-shift:baseline;text-anchor:start;white-space:normal;shape-padding:0;shape-margin:0;inline-size:0;clip-rule:nonzero;display:inline;overflow:visible;visibility:visible;isolation:auto;mix-blend-mode:normal;color-interpolation:sRGB;color-interpolation-filters:linearRGB;solid-color:#000000;solid-opacity:1;vector-effect:none;fill:#fadb41;fill-opacity:1;fill-rule:nonzero;stroke:none;stroke-width:0.378012;stroke-linecap:butt;stroke-linejoin:miter;stroke-miterlimit:4;stroke-dasharray:none;stroke-dashoffset:0;stroke-opacity:1;color-rendering:auto;image-rendering:auto;shape-rendering:auto;text-rendering:auto;enable-background:accumulate;stop-color:#000000;stop-opacity:1" />
        <path
           id="path3148"
           d="m 48.814453,27.927734 c -0.448974,0 -0.853728,0.08819 -1.205078,0.269532 h -0.002 v 0.002 c -0.277927,0.148228 -0.489752,0.3437 -0.679688,0.552734 -0.102643,-0.188554 -0.207307,-0.379671 -0.394531,-0.474609 -0.244331,-0.139835 -0.565674,-0.195313 -0.974609,-0.195313 H 44.125 v 0.699219 h 0.347656 c 0.39565,0 0.594886,0.1008 0.699219,0.287109 l 0.002,0.002 v 0.002 c 0.114596,0.19645 0.191406,0.555063 0.191406,1.064453 v 5.621093 h 1.783204 V 29.90625 c 0.133984,-0.193386 0.297694,-0.35152 0.515624,-0.464844 l 0.002,-0.002 0.002,-0.002 c 0.22956,-0.128553 0.479839,-0.191406 0.759765,-0.191406 0.259926,0 0.482599,0.03848 0.673828,0.111328 h 0.0039 l 0.0039,0.002 c 0.187285,0.06243 0.314928,0.152281 0.402344,0.271484 l 0.115234,0.158203 0.912109,-0.683593 -0.08203,-0.148438 c -0.193326,-0.343692 -0.383309,-0.596888 -0.59375,-0.757812 h -0.002 c -0.256326,-0.192245 -0.609221,-0.271485 -1.046875,-0.271485 z m 0,0.386719 c 0.389205,0 0.65735,0.07748 0.814453,0.195313 0.111221,0.08549 0.249032,0.288016 0.386719,0.503906 l -0.361328,0.271484 c -0.124492,-0.113768 -0.244545,-0.23429 -0.419922,-0.292968 h -0.002 c -0.241067,-0.09069 -0.509388,-0.134766 -0.804688,-0.134766 -0.338732,0 -0.657102,0.08078 -0.943359,0.240234 -0.285823,0.148628 -0.520539,0.358056 -0.693359,0.623047 l -0.03125,0.04883 v 5.59961 h -1.007813 v -5.232422 c 0,-0.544041 -0.06796,-0.95825 -0.242187,-1.257813 -0.155687,-0.276663 -0.50194,-0.365916 -0.871094,-0.408203 h 0.919922 c 0.374058,0 0.639212,0.05891 0.787109,0.144531 l 0.0039,0.002 0.0059,0.0039 c 0.160491,0.08025 0.267972,0.204306 0.33789,0.414062 l 0.04297,0.132813 h 0.3125 l 0.05859,-0.07422 c 0.166991,-0.213378 0.390163,-0.398099 0.679687,-0.552734 0.289466,-0.149402 0.628789,-0.226563 1.027344,-0.226563 z"
           style="color:#000000;font-style:normal;font-variant:normal;font-weight:normal;font-stretch:normal;font-size:medium;line-height:1.25;font-family:Philosopher;-inkscape-font-specification:Philosopher;font-variant-ligatures:normal;font-variant-position:normal;font-variant-caps:normal;font-variant-numeric:normal;font-variant-alternates:normal;font-variant-east-asian:normal;font-feature-settings:normal;font-variation-settings:normal;text-indent:0;text-align:start;text-decoration:none;text-decoration-line:none;text-decoration-style:solid;text-decoration-color:#000000;letter-spacing:normal;word-spacing:normal;text-transform:none;writing-mode:lr-tb;direction:ltr;text-orientation:mixed;dominant-baseline:auto;baseline-shift:baseline;text-anchor:start;white-space:normal;shape-padding:0;shape-margin:0;inline-size:0;clip-rule:nonzero;display:inline;overflow:visible;visibility:visible;isolation:auto;mix-blend-mode:normal;color-interpolation:sRGB;color-interpolation-filters:linearRGB;solid-color:#000000;solid-opacity:1;vector-effect:none;fill-opacity:1;fill-rule:nonzero;stroke:none;stroke-width:0.378012;stroke-linecap:butt;stroke-linejoin:miter;stroke-miterlimit:4;stroke-dasharray:none;stroke-dashoffset:0;stroke-opacity:1;color-rendering:auto;image-rendering:auto;shape-rendering:auto;text-rendering:auto;enable-background:accumulate;stop-color:#000000;stop-opacity:1" />
      </g>
    </g>
    <text
       xml:space="preserve"
       style="font-size:10.0318px;line-height:1.25;font-family:Philosopher;-inkscape-font-specification:Philosopher;fill:#fadb41;fill-opacity:0.501961;stroke-width:0.208996"
       x="40.226418"
       y="10.320858"
       id="text63"><tspan
         sodipodi:role="line"
         id="tspan61"
         x="40.226418"
         y="10.320858"
         style="fill:#fadb41;fill-opacity:0.501961;stroke-width:0.208996">Professor</tspan></text>
  </g>
  <script
     type="text/javascript"
     id="mesh_polyfill">
!function(){const t=&quot;http://www.w3.org/2000/svg&quot;,e=&quot;http://www.w3.org/1999/xlink&quot;,s=&quot;http://www.w3.org/1999/xhtml&quot;,r=2;if(document.createElementNS(t,&quot;meshgradient&quot;).x)return;const n=(t,e,s,r)=&gt;{let n=new x(.5*(e.x+s.x),.5*(e.y+s.y)),o=new x(.5*(t.x+e.x),.5*(t.y+e.y)),i=new x(.5*(s.x+r.x),.5*(s.y+r.y)),a=new x(.5*(n.x+o.x),.5*(n.y+o.y)),h=new x(.5*(n.x+i.x),.5*(n.y+i.y)),l=new x(.5*(a.x+h.x),.5*(a.y+h.y));return[[t,o,a,l],[l,h,i,r]]},o=t=&gt;{let e=t[0].distSquared(t[1]),s=t[2].distSquared(t[3]),r=.25*t[0].distSquared(t[2]),n=.25*t[1].distSquared(t[3]),o=e&gt;s?e:s,i=r&gt;n?r:n;return 18*(o&gt;i?o:i)},i=(t,e)=&gt;Math.sqrt(t.distSquared(e)),a=(t,e)=&gt;t.scale(2/3).add(e.scale(1/3)),h=t=&gt;{let e,s,r,n,o,i,a,h=new g;return t.match(/(\w+\(\s*[^)]+\))+/g).forEach(t=&gt;{let l=t.match(/[\w.-]+/g),d=l.shift();switch(d){case&quot;translate&quot;:2===l.length?e=new g(1,0,0,1,l[0],l[1]):(console.error(&quot;mesh.js: translate does not have 2 arguments!&quot;),e=new g(1,0,0,1,0,0)),h=h.append(e);break;case&quot;scale&quot;:1===l.length?s=new g(l[0],0,0,l[0],0,0):2===l.length?s=new g(l[0],0,0,l[1],0,0):(console.error(&quot;mesh.js: scale does not have 1 or 2 arguments!&quot;),s=new g(1,0,0,1,0,0)),h=h.append(s);break;case&quot;rotate&quot;:if(3===l.length&amp;&amp;(e=new g(1,0,0,1,l[1],l[2]),h=h.append(e)),l[0]){r=l[0]*Math.PI/180;let t=Math.cos(r),e=Math.sin(r);Math.abs(t)&lt;1e-16&amp;&amp;(t=0),Math.abs(e)&lt;1e-16&amp;&amp;(e=0),a=new g(t,e,-e,t,0,0),h=h.append(a)}else console.error(&quot;math.js: No argument to rotate transform!&quot;);3===l.length&amp;&amp;(e=new g(1,0,0,1,-l[1],-l[2]),h=h.append(e));break;case&quot;skewX&quot;:l[0]?(r=l[0]*Math.PI/180,n=Math.tan(r),o=new g(1,0,n,1,0,0),h=h.append(o)):console.error(&quot;math.js: No argument to skewX transform!&quot;);break;case&quot;skewY&quot;:l[0]?(r=l[0]*Math.PI/180,n=Math.tan(r),i=new g(1,n,0,1,0,0),h=h.append(i)):console.error(&quot;math.js: No argument to skewY transform!&quot;);break;case&quot;matrix&quot;:6===l.length?h=h.append(new g(...l)):console.error(&quot;math.js: Incorrect number of arguments for matrix!&quot;);break;default:console.error(&quot;mesh.js: Unhandled transform type: &quot;+d)}}),h},l=t=&gt;{let e=[],s=t.split(/[ ,]+/);for(let t=0,r=s.length-1;t&lt;r;t+=2)e.push(new x(parseFloat(s[t]),parseFloat(s[t+1])));return e},d=(t,e)=&gt;{for(let s in e)t.setAttribute(s,e[s])},c=(t,e,s,r,n)=&gt;{let o,i,a=[0,0,0,0];for(let h=0;h&lt;3;++h)e[h]&lt;t[h]&amp;&amp;e[h]&lt;s[h]||t[h]&lt;e[h]&amp;&amp;s[h]&lt;e[h]?a[h]=0:(a[h]=.5*((e[h]-t[h])/r+(s[h]-e[h])/n),o=Math.abs(3*(e[h]-t[h])/r),i=Math.abs(3*(s[h]-e[h])/n),a[h]&gt;o?a[h]=o:a[h]&gt;i&amp;&amp;(a[h]=i));return a},u=[[1,0,0,0,0,0,0,0,0,0,0,0,0,0,0,0],[0,0,0,0,1,0,0,0,0,0,0,0,0,0,0,0],[-3,3,0,0,-2,-1,0,0,0,0,0,0,0,0,0,0],[2,-2,0,0,1,1,0,0,0,0,0,0,0,0,0,0],[0,0,0,0,0,0,0,0,1,0,0,0,0,0,0,0],[0,0,0,0,0,0,0,0,0,0,0,0,1,0,0,0],[0,0,0,0,0,0,0,0,-3,3,0,0,-2,-1,0,0],[0,0,0,0,0,0,0,0,2,-2,0,0,1,1,0,0],[-3,0,3,0,0,0,0,0,-2,0,-1,0,0,0,0,0],[0,0,0,0,-3,0,3,0,0,0,0,0,-2,0,-1,0],[9,-9,-9,9,6,3,-6,-3,6,-6,3,-3,4,2,2,1],[-6,6,6,-6,-3,-3,3,3,-4,4,-2,2,-2,-2,-1,-1],[2,0,-2,0,0,0,0,0,1,0,1,0,0,0,0,0],[0,0,0,0,2,0,-2,0,0,0,0,0,1,0,1,0],[-6,6,6,-6,-4,-2,4,2,-3,3,-3,3,-2,-1,-2,-1],[4,-4,-4,4,2,2,-2,-2,2,-2,2,-2,1,1,1,1]],f=t=&gt;{let e=[];for(let s=0;s&lt;16;++s){e[s]=0;for(let r=0;r&lt;16;++r)e[s]+=u[s][r]*t[r]}return e},p=(t,e,s)=&gt;{const r=e*e,n=s*s,o=e*e*e,i=s*s*s;return t[0]+t[1]*e+t[2]*r+t[3]*o+t[4]*s+t[5]*s*e+t[6]*s*r+t[7]*s*o+t[8]*n+t[9]*n*e+t[10]*n*r+t[11]*n*o+t[12]*i+t[13]*i*e+t[14]*i*r+t[15]*i*o},y=t=&gt;{let e=[],s=[],r=[];for(let s=0;s&lt;4;++s)e[s]=[],e[s][0]=n(t[0][s],t[1][s],t[2][s],t[3][s]),e[s][1]=[],e[s][1].push(...n(...e[s][0][0])),e[s][1].push(...n(...e[s][0][1])),e[s][2]=[],e[s][2].push(...n(...e[s][1][0])),e[s][2].push(...n(...e[s][1][1])),e[s][2].push(...n(...e[s][1][2])),e[s][2].push(...n(...e[s][1][3]));for(let t=0;t&lt;8;++t){s[t]=[];for(let r=0;r&lt;4;++r)s[t][r]=[],s[t][r][0]=n(e[0][2][t][r],e[1][2][t][r],e[2][2][t][r],e[3][2][t][r]),s[t][r][1]=[],s[t][r][1].push(...n(...s[t][r][0][0])),s[t][r][1].push(...n(...s[t][r][0][1])),s[t][r][2]=[],s[t][r][2].push(...n(...s[t][r][1][0])),s[t][r][2].push(...n(...s[t][r][1][1])),s[t][r][2].push(...n(...s[t][r][1][2])),s[t][r][2].push(...n(...s[t][r][1][3]))}for(let t=0;t&lt;8;++t){r[t]=[];for(let e=0;e&lt;8;++e)r[t][e]=[],r[t][e][0]=s[t][0][2][e],r[t][e][1]=s[t][1][2][e],r[t][e][2]=s[t][2][2][e],r[t][e][3]=s[t][3][2][e]}return r};class x{constructor(t,e){this.x=t||0,this.y=e||0}toString(){return`(x=${this.x}, y=${this.y})`}clone(){return new x(this.x,this.y)}add(t){return new x(this.x+t.x,this.y+t.y)}scale(t){return void 0===t.x?new x(this.x*t,this.y*t):new x(this.x*t.x,this.y*t.y)}distSquared(t){let e=this.x-t.x,s=this.y-t.y;return e*e+s*s}transform(t){let e=this.x*t.a+this.y*t.c+t.e,s=this.x*t.b+this.y*t.d+t.f;return new x(e,s)}}class g{constructor(t,e,s,r,n,o){void 0===t?(this.a=1,this.b=0,this.c=0,this.d=1,this.e=0,this.f=0):(this.a=t,this.b=e,this.c=s,this.d=r,this.e=n,this.f=o)}toString(){return`affine: ${this.a} ${this.c} ${this.e} \n       ${this.b} ${this.d} ${this.f}`}append(t){t instanceof g||console.error(&quot;mesh.js: argument to Affine.append is not affine!&quot;);let e=this.a*t.a+this.c*t.b,s=this.b*t.a+this.d*t.b,r=this.a*t.c+this.c*t.d,n=this.b*t.c+this.d*t.d,o=this.a*t.e+this.c*t.f+this.e,i=this.b*t.e+this.d*t.f+this.f;return new g(e,s,r,n,o,i)}}class w{constructor(t,e){this.nodes=t,this.colors=e}paintCurve(t,e){if(o(this.nodes)&gt;r){const s=n(...this.nodes);let r=[[],[]],o=[[],[]];for(let t=0;t&lt;4;++t)r[0][t]=this.colors[0][t],r[1][t]=(this.colors[0][t]+this.colors[1][t])/2,o[0][t]=r[1][t],o[1][t]=this.colors[1][t];let i=new w(s[0],r),a=new w(s[1],o);i.paintCurve(t,e),a.paintCurve(t,e)}else{let s=Math.round(this.nodes[0].x);if(s&gt;=0&amp;&amp;s&lt;e){let r=4*(~~this.nodes[0].y*e+s);t[r]=Math.round(this.colors[0][0]),t[r+1]=Math.round(this.colors[0][1]),t[r+2]=Math.round(this.colors[0][2]),t[r+3]=Math.round(this.colors[0][3])}}}}class m{constructor(t,e){this.nodes=t,this.colors=e}split(){let t=[[],[],[],[]],e=[[],[],[],[]],s=[[[],[]],[[],[]]],r=[[[],[]],[[],[]]];for(let s=0;s&lt;4;++s){const r=n(this.nodes[0][s],this.nodes[1][s],this.nodes[2][s],this.nodes[3][s]);t[0][s]=r[0][0],t[1][s]=r[0][1],t[2][s]=r[0][2],t[3][s]=r[0][3],e[0][s]=r[1][0],e[1][s]=r[1][1],e[2][s]=r[1][2],e[3][s]=r[1][3]}for(let t=0;t&lt;4;++t)s[0][0][t]=this.colors[0][0][t],s[0][1][t]=this.colors[0][1][t],s[1][0][t]=(this.colors[0][0][t]+this.colors[1][0][t])/2,s[1][1][t]=(this.colors[0][1][t]+this.colors[1][1][t])/2,r[0][0][t]=s[1][0][t],r[0][1][t]=s[1][1][t],r[1][0][t]=this.colors[1][0][t],r[1][1][t]=this.colors[1][1][t];return[new m(t,s),new m(e,r)]}paint(t,e){let s,n=!1;for(let t=0;t&lt;4;++t)if((s=o([this.nodes[0][t],this.nodes[1][t],this.nodes[2][t],this.nodes[3][t]]))&gt;r){n=!0;break}if(n){let s=this.split();s[0].paint(t,e),s[1].paint(t,e)}else{new w([...this.nodes[0]],[...this.colors[0]]).paintCurve(t,e)}}}class b{constructor(t){this.readMesh(t),this.type=t.getAttribute(&quot;type&quot;)||&quot;bilinear&quot;}readMesh(t){let e=[[]],s=[[]],r=Number(t.getAttribute(&quot;x&quot;)),n=Number(t.getAttribute(&quot;y&quot;));e[0][0]=new x(r,n);let o=t.children;for(let t=0,r=o.length;t&lt;r;++t){e[3*t+1]=[],e[3*t+2]=[],e[3*t+3]=[],s[t+1]=[];let r=o[t].children;for(let n=0,o=r.length;n&lt;o;++n){let o=r[n].children;for(let r=0,i=o.length;r&lt;i;++r){let i=r;0!==t&amp;&amp;++i;let h,d=o[r].getAttribute(&quot;path&quot;),c=&quot;l&quot;;null!=d&amp;&amp;(c=(h=d.match(/\s*([lLcC])\s*(.*)/))[1]);let u=l(h[2]);switch(c){case&quot;l&quot;:0===i?(e[3*t][3*n+3]=u[0].add(e[3*t][3*n]),e[3*t][3*n+1]=a(e[3*t][3*n],e[3*t][3*n+3]),e[3*t][3*n+2]=a(e[3*t][3*n+3],e[3*t][3*n])):1===i?(e[3*t+3][3*n+3]=u[0].add(e[3*t][3*n+3]),e[3*t+1][3*n+3]=a(e[3*t][3*n+3],e[3*t+3][3*n+3]),e[3*t+2][3*n+3]=a(e[3*t+3][3*n+3],e[3*t][3*n+3])):2===i?(0===n&amp;&amp;(e[3*t+3][3*n+0]=u[0].add(e[3*t+3][3*n+3])),e[3*t+3][3*n+1]=a(e[3*t+3][3*n],e[3*t+3][3*n+3]),e[3*t+3][3*n+2]=a(e[3*t+3][3*n+3],e[3*t+3][3*n])):(e[3*t+1][3*n]=a(e[3*t][3*n],e[3*t+3][3*n]),e[3*t+2][3*n]=a(e[3*t+3][3*n],e[3*t][3*n]));break;case&quot;L&quot;:0===i?(e[3*t][3*n+3]=u[0],e[3*t][3*n+1]=a(e[3*t][3*n],e[3*t][3*n+3]),e[3*t][3*n+2]=a(e[3*t][3*n+3],e[3*t][3*n])):1===i?(e[3*t+3][3*n+3]=u[0],e[3*t+1][3*n+3]=a(e[3*t][3*n+3],e[3*t+3][3*n+3]),e[3*t+2][3*n+3]=a(e[3*t+3][3*n+3],e[3*t][3*n+3])):2===i?(0===n&amp;&amp;(e[3*t+3][3*n+0]=u[0]),e[3*t+3][3*n+1]=a(e[3*t+3][3*n],e[3*t+3][3*n+3]),e[3*t+3][3*n+2]=a(e[3*t+3][3*n+3],e[3*t+3][3*n])):(e[3*t+1][3*n]=a(e[3*t][3*n],e[3*t+3][3*n]),e[3*t+2][3*n]=a(e[3*t+3][3*n],e[3*t][3*n]));break;case&quot;c&quot;:0===i?(e[3*t][3*n+1]=u[0].add(e[3*t][3*n]),e[3*t][3*n+2]=u[1].add(e[3*t][3*n]),e[3*t][3*n+3]=u[2].add(e[3*t][3*n])):1===i?(e[3*t+1][3*n+3]=u[0].add(e[3*t][3*n+3]),e[3*t+2][3*n+3]=u[1].add(e[3*t][3*n+3]),e[3*t+3][3*n+3]=u[2].add(e[3*t][3*n+3])):2===i?(e[3*t+3][3*n+2]=u[0].add(e[3*t+3][3*n+3]),e[3*t+3][3*n+1]=u[1].add(e[3*t+3][3*n+3]),0===n&amp;&amp;(e[3*t+3][3*n+0]=u[2].add(e[3*t+3][3*n+3]))):(e[3*t+2][3*n]=u[0].add(e[3*t+3][3*n]),e[3*t+1][3*n]=u[1].add(e[3*t+3][3*n]));break;case&quot;C&quot;:0===i?(e[3*t][3*n+1]=u[0],e[3*t][3*n+2]=u[1],e[3*t][3*n+3]=u[2]):1===i?(e[3*t+1][3*n+3]=u[0],e[3*t+2][3*n+3]=u[1],e[3*t+3][3*n+3]=u[2]):2===i?(e[3*t+3][3*n+2]=u[0],e[3*t+3][3*n+1]=u[1],0===n&amp;&amp;(e[3*t+3][3*n+0]=u[2])):(e[3*t+2][3*n]=u[0],e[3*t+1][3*n]=u[1]);break;default:console.error(&quot;mesh.js: &quot;+c+&quot; invalid path type.&quot;)}if(0===t&amp;&amp;0===n||r&gt;0){let e=window.getComputedStyle(o[r]).stopColor.match(/^rgb\s*\(\s*(\d+)\s*,\s*(\d+)\s*,\s*(\d+)\s*\)$/i),a=window.getComputedStyle(o[r]).stopOpacity,h=255;a&amp;&amp;(h=Math.floor(255*a)),e&amp;&amp;(0===i?(s[t][n]=[],s[t][n][0]=Math.floor(e[1]),s[t][n][1]=Math.floor(e[2]),s[t][n][2]=Math.floor(e[3]),s[t][n][3]=h):1===i?(s[t][n+1]=[],s[t][n+1][0]=Math.floor(e[1]),s[t][n+1][1]=Math.floor(e[2]),s[t][n+1][2]=Math.floor(e[3]),s[t][n+1][3]=h):2===i?(s[t+1][n+1]=[],s[t+1][n+1][0]=Math.floor(e[1]),s[t+1][n+1][1]=Math.floor(e[2]),s[t+1][n+1][2]=Math.floor(e[3]),s[t+1][n+1][3]=h):3===i&amp;&amp;(s[t+1][n]=[],s[t+1][n][0]=Math.floor(e[1]),s[t+1][n][1]=Math.floor(e[2]),s[t+1][n][2]=Math.floor(e[3]),s[t+1][n][3]=h))}}e[3*t+1][3*n+1]=new x,e[3*t+1][3*n+2]=new x,e[3*t+2][3*n+1]=new x,e[3*t+2][3*n+2]=new x,e[3*t+1][3*n+1].x=(-4*e[3*t][3*n].x+6*(e[3*t][3*n+1].x+e[3*t+1][3*n].x)+-2*(e[3*t][3*n+3].x+e[3*t+3][3*n].x)+3*(e[3*t+3][3*n+1].x+e[3*t+1][3*n+3].x)+-1*e[3*t+3][3*n+3].x)/9,e[3*t+1][3*n+2].x=(-4*e[3*t][3*n+3].x+6*(e[3*t][3*n+2].x+e[3*t+1][3*n+3].x)+-2*(e[3*t][3*n].x+e[3*t+3][3*n+3].x)+3*(e[3*t+3][3*n+2].x+e[3*t+1][3*n].x)+-1*e[3*t+3][3*n].x)/9,e[3*t+2][3*n+1].x=(-4*e[3*t+3][3*n].x+6*(e[3*t+3][3*n+1].x+e[3*t+2][3*n].x)+-2*(e[3*t+3][3*n+3].x+e[3*t][3*n].x)+3*(e[3*t][3*n+1].x+e[3*t+2][3*n+3].x)+-1*e[3*t][3*n+3].x)/9,e[3*t+2][3*n+2].x=(-4*e[3*t+3][3*n+3].x+6*(e[3*t+3][3*n+2].x+e[3*t+2][3*n+3].x)+-2*(e[3*t+3][3*n].x+e[3*t][3*n+3].x)+3*(e[3*t][3*n+2].x+e[3*t+2][3*n].x)+-1*e[3*t][3*n].x)/9,e[3*t+1][3*n+1].y=(-4*e[3*t][3*n].y+6*(e[3*t][3*n+1].y+e[3*t+1][3*n].y)+-2*(e[3*t][3*n+3].y+e[3*t+3][3*n].y)+3*(e[3*t+3][3*n+1].y+e[3*t+1][3*n+3].y)+-1*e[3*t+3][3*n+3].y)/9,e[3*t+1][3*n+2].y=(-4*e[3*t][3*n+3].y+6*(e[3*t][3*n+2].y+e[3*t+1][3*n+3].y)+-2*(e[3*t][3*n].y+e[3*t+3][3*n+3].y)+3*(e[3*t+3][3*n+2].y+e[3*t+1][3*n].y)+-1*e[3*t+3][3*n].y)/9,e[3*t+2][3*n+1].y=(-4*e[3*t+3][3*n].y+6*(e[3*t+3][3*n+1].y+e[3*t+2][3*n].y)+-2*(e[3*t+3][3*n+3].y+e[3*t][3*n].y)+3*(e[3*t][3*n+1].y+e[3*t+2][3*n+3].y)+-1*e[3*t][3*n+3].y)/9,e[3*t+2][3*n+2].y=(-4*e[3*t+3][3*n+3].y+6*(e[3*t+3][3*n+2].y+e[3*t+2][3*n+3].y)+-2*(e[3*t+3][3*n].y+e[3*t][3*n+3].y)+3*(e[3*t][3*n+2].y+e[3*t+2][3*n].y)+-1*e[3*t][3*n].y)/9}}this.nodes=e,this.colors=s}paintMesh(t,e){let s=(this.nodes.length-1)/3,r=(this.nodes[0].length-1)/3;if(&quot;bilinear&quot;===this.type||s&lt;2||r&lt;2){let n;for(let o=0;o&lt;s;++o)for(let s=0;s&lt;r;++s){let r=[];for(let t=3*o,e=3*o+4;t&lt;e;++t)r.push(this.nodes[t].slice(3*s,3*s+4));let i=[];i.push(this.colors[o].slice(s,s+2)),i.push(this.colors[o+1].slice(s,s+2)),(n=new m(r,i)).paint(t,e)}}else{let n,o,a,h,l,d,u;const x=s,g=r;s++,r++;let w=new Array(s);for(let t=0;t&lt;s;++t){w[t]=new Array(r);for(let e=0;e&lt;r;++e)w[t][e]=[],w[t][e][0]=this.nodes[3*t][3*e],w[t][e][1]=this.colors[t][e]}for(let t=0;t&lt;s;++t)for(let e=0;e&lt;r;++e)0!==t&amp;&amp;t!==x&amp;&amp;(n=i(w[t-1][e][0],w[t][e][0]),o=i(w[t+1][e][0],w[t][e][0]),w[t][e][2]=c(w[t-1][e][1],w[t][e][1],w[t+1][e][1],n,o)),0!==e&amp;&amp;e!==g&amp;&amp;(n=i(w[t][e-1][0],w[t][e][0]),o=i(w[t][e+1][0],w[t][e][0]),w[t][e][3]=c(w[t][e-1][1],w[t][e][1],w[t][e+1][1],n,o));for(let t=0;t&lt;r;++t){w[0][t][2]=[],w[x][t][2]=[];for(let e=0;e&lt;4;++e)n=i(w[1][t][0],w[0][t][0]),o=i(w[x][t][0],w[x-1][t][0]),w[0][t][2][e]=n&gt;0?2*(w[1][t][1][e]-w[0][t][1][e])/n-w[1][t][2][e]:0,w[x][t][2][e]=o&gt;0?2*(w[x][t][1][e]-w[x-1][t][1][e])/o-w[x-1][t][2][e]:0}for(let t=0;t&lt;s;++t){w[t][0][3]=[],w[t][g][3]=[];for(let e=0;e&lt;4;++e)n=i(w[t][1][0],w[t][0][0]),o=i(w[t][g][0],w[t][g-1][0]),w[t][0][3][e]=n&gt;0?2*(w[t][1][1][e]-w[t][0][1][e])/n-w[t][1][3][e]:0,w[t][g][3][e]=o&gt;0?2*(w[t][g][1][e]-w[t][g-1][1][e])/o-w[t][g-1][3][e]:0}for(let s=0;s&lt;x;++s)for(let r=0;r&lt;g;++r){let n=i(w[s][r][0],w[s+1][r][0]),o=i(w[s][r+1][0],w[s+1][r+1][0]),c=i(w[s][r][0],w[s][r+1][0]),x=i(w[s+1][r][0],w[s+1][r+1][0]),g=[[],[],[],[]];for(let t=0;t&lt;4;++t){(d=[])[0]=w[s][r][1][t],d[1]=w[s+1][r][1][t],d[2]=w[s][r+1][1][t],d[3]=w[s+1][r+1][1][t],d[4]=w[s][r][2][t]*n,d[5]=w[s+1][r][2][t]*n,d[6]=w[s][r+1][2][t]*o,d[7]=w[s+1][r+1][2][t]*o,d[8]=w[s][r][3][t]*c,d[9]=w[s+1][r][3][t]*x,d[10]=w[s][r+1][3][t]*c,d[11]=w[s+1][r+1][3][t]*x,d[12]=0,d[13]=0,d[14]=0,d[15]=0,u=f(d);for(let e=0;e&lt;9;++e){g[t][e]=[];for(let s=0;s&lt;9;++s)g[t][e][s]=p(u,e/8,s/8),g[t][e][s]&gt;255?g[t][e][s]=255:g[t][e][s]&lt;0&amp;&amp;(g[t][e][s]=0)}}h=[];for(let t=3*s,e=3*s+4;t&lt;e;++t)h.push(this.nodes[t].slice(3*r,3*r+4));l=y(h);for(let s=0;s&lt;8;++s)for(let r=0;r&lt;8;++r)(a=new m(l[s][r],[[[g[0][s][r],g[1][s][r],g[2][s][r],g[3][s][r]],[g[0][s][r+1],g[1][s][r+1],g[2][s][r+1],g[3][s][r+1]]],[[g[0][s+1][r],g[1][s+1][r],g[2][s+1][r],g[3][s+1][r]],[g[0][s+1][r+1],g[1][s+1][r+1],g[2][s+1][r+1],g[3][s+1][r+1]]]])).paint(t,e)}}}transform(t){if(t instanceof x)for(let e=0,s=this.nodes.length;e&lt;s;++e)for(let s=0,r=this.nodes[0].length;s&lt;r;++s)this.nodes[e][s]=this.nodes[e][s].add(t);else if(t instanceof g)for(let e=0,s=this.nodes.length;e&lt;s;++e)for(let s=0,r=this.nodes[0].length;s&lt;r;++s)this.nodes[e][s]=this.nodes[e][s].transform(t)}scale(t){for(let e=0,s=this.nodes.length;e&lt;s;++e)for(let s=0,r=this.nodes[0].length;s&lt;r;++s)this.nodes[e][s]=this.nodes[e][s].scale(t)}}document.querySelectorAll(&quot;rect,circle,ellipse,path,text&quot;).forEach((r,n)=&gt;{let o=r.getAttribute(&quot;id&quot;);o||(o=&quot;patchjs_shape&quot;+n,r.setAttribute(&quot;id&quot;,o));const i=r.style.fill.match(/^url\(\s*&quot;?\s*#([^\s&quot;]+)&quot;?\s*\)/),a=r.style.stroke.match(/^url\(\s*&quot;?\s*#([^\s&quot;]+)&quot;?\s*\)/);if(i&amp;&amp;i[1]){const a=document.getElementById(i[1]);if(a&amp;&amp;&quot;meshgradient&quot;===a.nodeName){const i=r.getBBox();let l=document.createElementNS(s,&quot;canvas&quot;);d(l,{width:i.width,height:i.height});const c=l.getContext(&quot;2d&quot;);let u=c.createImageData(i.width,i.height);const f=new b(a);&quot;objectBoundingBox&quot;===a.getAttribute(&quot;gradientUnits&quot;)&amp;&amp;f.scale(new x(i.width,i.height));const p=a.getAttribute(&quot;gradientTransform&quot;);null!=p&amp;&amp;f.transform(h(p)),&quot;userSpaceOnUse&quot;===a.getAttribute(&quot;gradientUnits&quot;)&amp;&amp;f.transform(new x(-i.x,-i.y)),f.paintMesh(u.data,l.width),c.putImageData(u,0,0);const y=document.createElementNS(t,&quot;image&quot;);d(y,{width:i.width,height:i.height,x:i.x,y:i.y});let g=l.toDataURL();y.setAttributeNS(e,&quot;xlink:href&quot;,g),r.parentNode.insertBefore(y,r),r.style.fill=&quot;none&quot;;const w=document.createElementNS(t,&quot;use&quot;);w.setAttributeNS(e,&quot;xlink:href&quot;,&quot;#&quot;+o);const m=&quot;patchjs_clip&quot;+n,M=document.createElementNS(t,&quot;clipPath&quot;);M.setAttribute(&quot;id&quot;,m),M.appendChild(w),r.parentElement.insertBefore(M,r),y.setAttribute(&quot;clip-path&quot;,&quot;url(#&quot;+m+&quot;)&quot;),u=null,l=null,g=null}}if(a&amp;&amp;a[1]){const o=document.getElementById(a[1]);if(o&amp;&amp;&quot;meshgradient&quot;===o.nodeName){const i=parseFloat(r.style.strokeWidth.slice(0,-2))*(parseFloat(r.style.strokeMiterlimit)||parseFloat(r.getAttribute(&quot;stroke-miterlimit&quot;))||1),a=r.getBBox(),l=Math.trunc(a.width+i),c=Math.trunc(a.height+i),u=Math.trunc(a.x-i/2),f=Math.trunc(a.y-i/2);let p=document.createElementNS(s,&quot;canvas&quot;);d(p,{width:l,height:c});const y=p.getContext(&quot;2d&quot;);let g=y.createImageData(l,c);const w=new b(o);&quot;objectBoundingBox&quot;===o.getAttribute(&quot;gradientUnits&quot;)&amp;&amp;w.scale(new x(l,c));const m=o.getAttribute(&quot;gradientTransform&quot;);null!=m&amp;&amp;w.transform(h(m)),&quot;userSpaceOnUse&quot;===o.getAttribute(&quot;gradientUnits&quot;)&amp;&amp;w.transform(new x(-u,-f)),w.paintMesh(g.data,p.width),y.putImageData(g,0,0);const M=document.createElementNS(t,&quot;image&quot;);d(M,{width:l,height:c,x:0,y:0});let S=p.toDataURL();M.setAttributeNS(e,&quot;xlink:href&quot;,S);const k=&quot;pattern_clip&quot;+n,A=document.createElementNS(t,&quot;pattern&quot;);d(A,{id:k,patternUnits:&quot;userSpaceOnUse&quot;,width:l,height:c,x:u,y:f}),A.appendChild(M),o.parentNode.appendChild(A),r.style.stroke=&quot;url(#&quot;+k+&quot;)&quot;,g=null,p=null,S=null}}})}();
</script>
</svg>
